<svg xmlns="http://www.w3.org/2000/svg" viewBox="0 0 4080 4080"><style type="text/css">@import &quot;mysvg.css&quot;;</style><mask id="fade" maskUnits="userSpaceOnUse"><linearGradient id="gradient" x1="0" x2="0" y1="0" y2="100%"><stop offset="0" style="stop-color:#fff"/><stop offset="1" style="stop-color:#000"/></linearGradient><rect width="100%" height="100%" fill="url(#gradient)"/></mask><pattern id="pattern-circles" width="40" height="40" x="0" y="0" patternUnits="userSpaceOnUse"><circle cx="20" cy="20" r="15" class="cell" opacity=".2"/></pattern><pattern id="pattern-io" width="40" height="40" x="0" y="0" patternUnits="userSpaceOnUse"><circle cx="20" cy="20" r="15" class="iopad" opacity=".2"/></pattern><rect width="4000" height="4000" x="40" y="40" fill="url(#pattern-circles)"/><rect width="4000" height="40" x="40" y="0" fill="url(#pattern-io)"/><rect width="4000" height="40" x="40" y="4040" fill="url(#pattern-io)"/><rect width="40" height="4000" x="0" y="40" fill="url(#pattern-io)"/><rect width="40" height="4000" x="4040" y="40" fill="url(#pattern-io)"/><defs><circle id="s1" cx="200" cy="200" r="200" fill="#ff0" stroke="#000" stroke-width="3"/><ellipse id="s2" cx="200" cy="150" fill="salmon" stroke="#000" stroke-width="3" rx="200" ry="150"/><rect id="r1" width="35" height="35" fill="#FF00A7" stroke="#000" stroke-width="3" opacity=".2"/><rect id="io" width="35" height="35" fill="#00E7FF" stroke="#000" stroke-width="3" opacity=".2"/></defs><use x="160" y="240" href="#r1"/><use x="40" y="120" href="#r1"/><use x="80" y="120" href="#r1"/><use x="3720" y="40" href="#r1"/><use x="120" y="120" href="#r1"/><use x="3640" y="40" href="#r1"/><use x="80" y="40" href="#r1"/><use x="120" y="40" href="#r1"/><use x="40" y="200" href="#r1"/><use x="80" y="80" href="#r1"/><use x="1160" y="360" href="#r1"/><use x="320" y="40" href="#r1"/><use x="360" y="40" href="#r1"/><use x="160" y="40" href="#r1"/><use x="40" y="40" href="#r1"/><use x="400" y="40" href="#r1"/><use x="440" y="40" href="#r1"/><use x="520" y="40" href="#r1"/><use x="560" y="40" href="#r1"/><use x="560" y="80" href="#r1"/><use x="240" y="120" href="#r1"/><use x="3840" y="80" href="#r1"/><use x="600" y="40" href="#r1"/><use x="200" y="80" href="#r1"/><use x="280" y="80" href="#r1"/><use x="640" y="40" href="#r1"/><use x="320" y="80" href="#r1"/><use x="680" y="40" href="#r1"/><use x="720" y="40" href="#r1"/><use x="400" y="80" href="#r1"/><use x="760" y="40" href="#r1"/><use x="800" y="40" href="#r1"/><use x="840" y="40" href="#r1"/><use x="880" y="40" href="#r1"/><use x="160" y="120" href="#r1"/><use x="920" y="40" href="#r1"/><use x="960" y="40" href="#r1"/><use x="1000" y="40" href="#r1"/><use x="200" y="240" href="#r1"/><use x="480" y="80" href="#r1"/><use x="520" y="80" href="#r1"/><use x="1040" y="40" href="#r1"/><use x="1080" y="40" href="#r1"/><use x="1120" y="40" href="#r1"/><use x="1160" y="40" href="#r1"/><use x="1200" y="40" href="#r1"/><use x="200" y="120" href="#r1"/><use x="1240" y="40" href="#r1"/><use x="1280" y="40" href="#r1"/><use x="1320" y="40" href="#r1"/><use x="1360" y="40" href="#r1"/><use x="1400" y="40" href="#r1"/><use x="1440" y="40" href="#r1"/><use x="1480" y="40" href="#r1"/><use x="1520" y="40" href="#r1"/><use x="1560" y="40" href="#r1"/><use x="320" y="120" href="#r1"/><use x="1600" y="40" href="#r1"/><use x="1640" y="40" href="#r1"/><use x="1800" y="40" href="#r1"/><use x="1720" y="40" href="#r1"/><use x="1760" y="40" href="#r1"/><use x="1840" y="40" href="#r1"/><use x="1880" y="40" href="#r1"/><use x="720" y="80" href="#r1"/><use x="760" y="80" href="#r1"/><use x="1920" y="40" href="#r1"/><use x="1960" y="40" href="#r1"/><use x="2000" y="40" href="#r1"/><use x="800" y="80" href="#r1"/><use x="840" y="80" href="#r1"/><use x="2040" y="40" href="#r1"/><use x="360" y="120" href="#r1"/><use x="2080" y="40" href="#r1"/><use x="880" y="80" href="#r1"/><use x="120" y="240" href="#r1"/><use x="2120" y="40" href="#r1"/><use x="1120" y="240" href="#r1"/><use x="2160" y="40" href="#r1"/><use x="2200" y="40" href="#r1"/><use x="2240" y="40" href="#r1"/><use x="2280" y="40" href="#r1"/><use x="2320" y="40" href="#r1"/><use x="2360" y="40" href="#r1"/><use x="920" y="80" href="#r1"/><use x="2400" y="40" href="#r1"/><use x="2440" y="40" href="#r1"/><use x="2480" y="40" href="#r1"/><use x="800" y="160" href="#r1"/><use x="960" y="360" href="#r1"/><use x="640" y="240" href="#r1"/><use x="80" y="160" href="#r1"/><use x="2520" y="40" href="#r1"/><use x="2600" y="40" href="#r1"/><use x="480" y="280" href="#r1"/><use x="3800" y="120" href="#r1"/><use x="280" y="520" href="#r1"/><use x="3840" y="120" href="#r1"/><use x="720" y="240" href="#r1"/><use x="520" y="120" href="#r1"/><use x="960" y="80" href="#r1"/><use x="760" y="240" href="#r1"/><use x="40" y="240" href="#r1"/><use x="840" y="240" href="#r1"/><use x="560" y="120" href="#r1"/><use x="1000" y="80" href="#r1"/><use x="600" y="120" href="#r1"/><use x="2640" y="40" href="#r1"/><use x="880" y="160" href="#r1"/><use x="2680" y="40" href="#r1"/><use x="2720" y="40" href="#r1"/><use x="1040" y="80" href="#r1"/><use x="1080" y="240" href="#r1"/><use x="2800" y="40" href="#r1"/><use x="80" y="280" href="#r1"/><use x="1080" y="80" href="#r1"/><use x="1120" y="80" href="#r1"/><use x="2840" y="40" href="#r1"/><use x="1160" y="80" href="#r1"/><use x="2880" y="40" href="#r1"/><use x="360" y="360" href="#r1"/><use x="1200" y="80" href="#r1"/><use x="520" y="320" href="#r1"/><use x="680" y="120" href="#r1"/><use x="680" y="320" href="#r1"/><use x="2920" y="40" href="#r1"/><use x="2960" y="40" href="#r1"/><use x="1280" y="80" href="#r1"/><use x="3040" y="40" href="#r1"/><use x="1280" y="240" href="#r1"/><use x="960" y="280" href="#r1"/><use x="720" y="120" href="#r1"/><use x="1480" y="280" href="#r1"/><use x="1360" y="80" href="#r1"/><use x="280" y="320" href="#r1"/><use x="80" y="240" href="#r1"/><use x="40" y="320" href="#r1"/><use x="3160" y="40" href="#r1"/><use x="1440" y="240" href="#r1"/><use x="160" y="200" href="#r1"/><use x="1400" y="80" href="#r1"/><use x="1080" y="160" href="#r1"/><use x="760" y="120" href="#r1"/><use x="800" y="120" href="#r1"/><use x="840" y="120" href="#r1"/><use x="880" y="120" href="#r1"/><use x="920" y="120" href="#r1"/><use x="3200" y="40" href="#r1"/><use x="40" y="160" href="#r1"/><use x="280" y="360" href="#r1"/><use x="960" y="120" href="#r1"/><use x="3280" y="40" href="#r1"/><use x="1000" y="120" href="#r1"/><use x="1040" y="120" href="#r1"/><use x="2080" y="200" href="#r1"/><use x="1240" y="160" href="#r1"/><use x="240" y="320" href="#r1"/><use x="1080" y="120" href="#r1"/><use x="3320" y="40" href="#r1"/><use x="1160" y="280" href="#r1"/><use x="1520" y="80" href="#r1"/><use x="2120" y="200" href="#r1"/><use x="1560" y="80" href="#r1"/><use x="1200" y="280" href="#r1"/><use x="1600" y="80" href="#r1"/><use x="1640" y="80" href="#r1"/><use x="1680" y="80" href="#r1"/><use x="1360" y="160" href="#r1"/><use x="1280" y="280" href="#r1"/><use x="800" y="320" href="#r1"/><use x="840" y="320" href="#r1"/><use x="1520" y="160" href="#r1"/><use x="1320" y="280" href="#r1"/><use x="1720" y="80" href="#r1"/><use x="1360" y="280" href="#r1"/><use x="1160" y="120" href="#r1"/><use x="1200" y="120" href="#r1"/><use x="1760" y="80" href="#r1"/><use x="1440" y="280" href="#r1"/><use x="1800" y="80" href="#r1"/><use x="960" y="320" href="#r1"/><use x="3400" y="40" href="#r1"/><use x="1360" y="120" href="#r1"/><use x="1520" y="280" href="#r1"/><use x="1560" y="280" href="#r1"/><use x="1600" y="280" href="#r1"/><use x="1840" y="80" href="#r1"/><use x="1880" y="80" href="#r1"/><use x="1920" y="80" href="#r1"/><use x="1960" y="80" href="#r1"/><use x="2000" y="80" href="#r1"/><use x="1720" y="280" href="#r1"/><use x="1720" y="160" href="#r1"/><use x="2080" y="80" href="#r1"/><use x="1800" y="280" href="#r1"/><use x="1400" y="120" href="#r1"/><use x="1960" y="240" href="#r1"/><use x="1920" y="160" href="#r1"/><use x="1960" y="160" href="#r1"/><use x="1840" y="280" href="#r1"/><use x="1440" y="120" href="#r1"/><use x="2120" y="80" href="#r1"/><use x="2160" y="80" href="#r1"/><use x="1080" y="320" href="#r1"/><use x="2200" y="80" href="#r1"/><use x="2240" y="80" href="#r1"/><use x="1480" y="120" href="#r1"/><use x="1520" y="120" href="#r1"/><use x="1200" y="320" href="#r1"/><use x="2320" y="80" href="#r1"/><use x="1280" y="320" href="#r1"/><use x="1320" y="320" href="#r1"/><use x="1360" y="320" href="#r1"/><use x="1000" y="360" href="#r1"/><use x="1560" y="120" href="#r1"/><use x="2000" y="160" href="#r1"/><use x="2360" y="80" href="#r1"/><use x="2040" y="160" href="#r1"/><use x="1640" y="120" href="#r1"/><use x="2280" y="200" href="#r1"/><use x="2400" y="80" href="#r1"/><use x="2440" y="80" href="#r1"/><use x="1600" y="320" href="#r1"/><use x="2080" y="160" href="#r1"/><use x="2120" y="160" href="#r1"/><use x="2480" y="80" href="#r1"/><use x="2320" y="200" href="#r1"/><use x="2360" y="200" href="#r1"/><use x="2520" y="80" href="#r1"/><use x="1720" y="120" href="#r1"/><use x="2400" y="200" href="#r1"/><use x="2560" y="80" href="#r1"/><use x="2440" y="200" href="#r1"/><use x="2600" y="80" href="#r1"/><use x="2000" y="320" href="#r1"/><use x="120" y="440" href="#r1"/><use x="80" y="400" href="#r1"/><use x="160" y="440" href="#r1"/><use x="40" y="400" href="#r1"/><use x="40" y="440" href="#r1"/><use x="840" y="360" href="#r1"/><use x="80" y="560" href="#r1"/><use x="120" y="600" href="#r1"/><use x="40" y="560" href="#r1"/><use x="120" y="400" href="#r1"/><use x="200" y="440" href="#r1"/><use x="520" y="440" href="#r1"/><use x="2280" y="280" href="#r1"/><use x="2640" y="80" href="#r1"/><use x="480" y="320" href="#r1"/><use x="2360" y="280" href="#r1"/><use x="640" y="320" href="#r1"/><use x="160" y="600" href="#r1"/><use x="200" y="640" href="#r1"/><use x="200" y="360" href="#r1"/><use x="800" y="360" href="#r1"/><use x="80" y="360" href="#r1"/><use x="2680" y="80" href="#r1"/><use x="2640" y="200" href="#r1"/><use x="2360" y="160" href="#r1"/><use x="2720" y="80" href="#r1"/><use x="2760" y="80" href="#r1"/><use x="1840" y="120" href="#r1"/><use x="720" y="360" href="#r1"/><use x="1880" y="120" href="#r1"/><use x="2840" y="80" href="#r1"/><use x="1920" y="120" href="#r1"/><use x="2560" y="280" href="#r1"/><use x="2720" y="200" href="#r1"/><use x="2880" y="80" href="#r1"/><use x="200" y="320" href="#r1"/><use x="2920" y="80" href="#r1"/><use x="1960" y="120" href="#r1"/><use x="600" y="320" href="#r1"/><use x="2000" y="120" href="#r1"/><use x="2640" y="280" href="#r1"/><use x="2040" y="120" href="#r1"/><use x="2080" y="120" href="#r1"/><use x="2120" y="120" href="#r1"/><use x="2760" y="280" href="#r1"/><use x="120" y="360" href="#r1"/><use x="3000" y="80" href="#r1"/><use x="2800" y="280" href="#r1"/><use x="160" y="360" href="#r1"/><use x="520" y="400" href="#r1"/><use x="560" y="400" href="#r1"/><use x="640" y="400" href="#r1"/><use x="440" y="360" href="#r1"/><use x="560" y="320" href="#r1"/><use x="2920" y="240" href="#r1"/><use x="2520" y="160" href="#r1"/><use x="2880" y="200" href="#r1"/><use x="2200" y="120" href="#r1"/><use x="2240" y="120" href="#r1"/><use x="2280" y="120" href="#r1"/><use x="3000" y="240" href="#r1"/><use x="2320" y="120" href="#r1"/><use x="3040" y="80" href="#r1"/><use x="2920" y="200" href="#r1"/><use x="3040" y="240" href="#r1"/><use x="2920" y="280" href="#r1"/><use x="3080" y="80" href="#r1"/><use x="3120" y="80" href="#r1"/><use x="3160" y="80" href="#r1"/><use x="2400" y="120" href="#r1"/><use x="2440" y="120" href="#r1"/><use x="880" y="320" href="#r1"/><use x="920" y="320" href="#r1"/><use x="3240" y="80" href="#r1"/><use x="3120" y="240" href="#r1"/><use x="3160" y="240" href="#r1"/><use x="2960" y="200" href="#r1"/><use x="3040" y="280" href="#r1"/><use x="1000" y="320" href="#r1"/><use x="3080" y="280" href="#r1"/><use x="3160" y="280" href="#r1"/><use x="3280" y="80" href="#r1"/><use x="3320" y="80" href="#r1"/><use x="3360" y="80" href="#r1"/><use x="2520" y="120" href="#r1"/><use x="3600" y="40" href="#r1"/><use x="3200" y="280" href="#r1"/><use x="2560" y="120" href="#r1"/><use x="3240" y="280" href="#r1"/><use x="3280" y="280" href="#r1"/><use x="2600" y="120" href="#r1"/><use x="2640" y="120" href="#r1"/><use x="3400" y="80" href="#r1"/><use x="2760" y="160" href="#r1"/><use x="3280" y="240" href="#r1"/><use x="3320" y="280" href="#r1"/><use x="3320" y="240" href="#r1"/><use x="3520" y="40" href="#r1"/><use x="760" y="360" href="#r1"/><use x="2800" y="160" href="#r1"/><use x="3440" y="80" href="#r1"/><use x="200" y="40" href="#r1"/><use x="3360" y="280" href="#r1"/><use x="3360" y="240" href="#r1"/><use x="3400" y="240" href="#r1"/><use x="3440" y="240" href="#r1"/><use x="3480" y="240" href="#r1"/><use x="480" y="440" href="#r1"/><use x="880" y="360" href="#r1"/><use x="280" y="480" href="#r1"/><use x="3400" y="280" href="#r1"/><use x="240" y="40" href="#r1"/><use x="1480" y="320" href="#r1"/><use x="1520" y="320" href="#r1"/><use x="1560" y="320" href="#r1"/><use x="2680" y="120" href="#r1"/><use x="1640" y="320" href="#r1"/><use x="1680" y="320" href="#r1"/><use x="3440" y="280" href="#r1"/><use x="3000" y="200" href="#r1"/><use x="3040" y="200" href="#r1"/><use x="3080" y="200" href="#r1"/><use x="3120" y="200" href="#r1"/><use x="3480" y="280" href="#r1"/><use x="1800" y="320" href="#r1"/><use x="3520" y="280" href="#r1"/><use x="3600" y="280" href="#r1"/><use x="1840" y="320" href="#r1"/><use x="3480" y="80" href="#r1"/><use x="3520" y="80" href="#r1"/><use x="2720" y="120" href="#r1"/><use x="1760" y="320" href="#r1"/><use x="240" y="440" href="#r1"/><use x="400" y="320" href="#r1"/><use x="3160" y="200" href="#r1"/><use x="3200" y="200" href="#r1"/><use x="3240" y="200" href="#r1"/><use x="2840" y="160" href="#r1"/><use x="3280" y="200" href="#r1"/><use x="2880" y="160" href="#r1"/><use x="2920" y="160" href="#r1"/><use x="2960" y="160" href="#r1"/><use x="3000" y="160" href="#r1"/><use x="2760" y="120" href="#r1"/><use x="3040" y="160" href="#r1"/><use x="3320" y="200" href="#r1"/><use x="3080" y="160" href="#r1"/><use x="3120" y="160" href="#r1"/><use x="2800" y="120" href="#r1"/><use x="3160" y="160" href="#r1"/><use x="3200" y="160" href="#r1"/><use x="3240" y="160" href="#r1"/><use x="2840" y="120" href="#r1"/><use x="3360" y="200" href="#r1"/><use x="2880" y="120" href="#r1"/><use x="120" y="320" href="#r1"/><use x="2920" y="120" href="#r1"/><use x="3520" y="240" href="#r1"/><use x="2960" y="120" href="#r1"/><use x="3000" y="120" href="#r1"/><use x="3560" y="240" href="#r1"/><use x="3600" y="240" href="#r1"/><use x="3040" y="120" href="#r1"/><use x="3080" y="120" href="#r1"/><use x="3720" y="240" href="#r1"/><use x="3120" y="120" href="#r1"/><use x="3280" y="160" href="#r1"/><use x="3600" y="80" href="#r1"/><use x="3560" y="80" href="#r1"/><use x="3160" y="120" href="#r1"/><use x="3200" y="120" href="#r1"/><use x="3400" y="200" href="#r1"/><use x="3320" y="160" href="#r1"/><use x="3240" y="120" href="#r1"/><use x="3680" y="80" href="#r1"/><use x="3640" y="80" href="#r1"/><use x="3440" y="200" href="#r1"/><use x="920" y="360" href="#r1"/><use x="3680" y="280" href="#r1"/><use x="3480" y="200" href="#r1"/><use x="360" y="320" href="#r1"/><use x="3680" y="240" href="#r1"/><use x="160" y="320" href="#r1"/><use x="3640" y="240" href="#r1"/><use x="3880" y="80" href="#r1"/><use x="480" y="360" href="#r1"/><use x="3560" y="280" href="#r1"/><use x="3520" y="200" href="#r1"/><use x="520" y="360" href="#r1"/><use x="3280" y="120" href="#r1"/><use x="760" y="320" href="#r1"/><use x="200" y="280" href="#r1"/><use x="80" y="440" href="#r1"/><use x="200" y="400" href="#r1"/><use x="3680" y="200" href="#r1"/><use x="3600" y="200" href="#r1"/><use x="3360" y="160" href="#r1"/><use x="3400" y="160" href="#r1"/><use x="3760" y="240" href="#r1"/><use x="3880" y="240" href="#r1"/><use x="3840" y="200" href="#r1"/><use x="3320" y="120" href="#r1"/><use x="3440" y="160" href="#r1"/><use x="3360" y="120" href="#r1"/><use x="3400" y="120" href="#r1"/><use x="3480" y="160" href="#r1"/><use x="3520" y="160" href="#r1"/><use x="3760" y="80" href="#r1"/><use x="3760" y="280" href="#r1"/><use x="80" y="320" href="#r1"/><use x="280" y="240" href="#r1"/><use x="3440" y="120" href="#r1"/><use x="3480" y="120" href="#r1"/><use x="3720" y="280" href="#r1"/><use x="240" y="80" href="#r1"/><use x="3520" y="120" href="#r1"/><use x="3760" y="120" href="#r1"/><use x="360" y="80" href="#r1"/><use x="3560" y="160" href="#r1"/><use x="480" y="40" href="#r1"/><use x="3000" y="40" href="#r1"/><use x="3600" y="120" href="#r1"/><use x="3640" y="120" href="#r1"/><use x="3080" y="40" href="#r1"/><use x="240" y="2880" href="#r1"/><use x="3880" y="120" href="#r1"/><use x="3800" y="240" href="#r1"/><use x="3120" y="40" href="#r1"/><use x="2800" y="80" href="#r1"/><use x="3560" y="200" href="#r1"/><use x="280" y="2880" href="#r1"/><use x="2960" y="80" href="#r1"/><use x="3200" y="80" href="#r1"/><use x="3600" y="160" href="#r1"/><use x="3680" y="120" href="#r1"/><use x="1480" y="240" href="#r1"/><use x="1400" y="320" href="#r1"/><use x="3640" y="160" href="#r1"/><use x="3800" y="280" href="#r1"/><use x="1440" y="320" href="#r1"/><use x="160" y="400" href="#r1"/><use x="3680" y="160" href="#r1"/><use x="3560" y="120" href="#r1"/><use x="400" y="120" href="#r1"/><use x="3640" y="200" href="#r1"/><use x="2800" y="240" href="#r1"/><use x="1760" y="280" href="#r1"/><use x="240" y="200" href="#r1"/><use x="640" y="200" href="#r1"/><use x="1040" y="360" href="#r1"/><use x="240" y="160" href="#r1"/><use x="480" y="120" href="#r1"/><use x="280" y="40" href="#r1"/><use x="280" y="160" href="#r1"/><use x="3720" y="120" href="#r1"/><use x="760" y="200" href="#r1"/><use x="440" y="160" href="#r1"/><use x="1800" y="120" href="#r1"/><use x="1880" y="320" href="#r1"/><use x="1640" y="160" href="#r1"/><use x="2480" y="200" href="#r1"/><use x="2600" y="200" href="#r1"/><use x="1680" y="160" href="#r1"/><use x="2160" y="120" href="#r1"/><use x="2760" y="200" href="#r1"/><use x="2320" y="160" href="#r1"/><use x="2520" y="280" href="#r1"/><use x="2360" y="120" href="#r1"/><use x="3080" y="240" href="#r1"/><use x="1320" y="80" href="#r1"/><use x="2800" y="200" href="#r1"/><use x="2600" y="280" href="#r1"/><use x="3120" y="280" href="#r1"/><use x="2600" y="160" href="#r1"/><use x="1760" y="160" href="#r1"/><use x="400" y="360" href="#r1"/><use x="320" y="360" href="#r1"/><use x="3720" y="80" href="#r1"/><use x="3760" y="160" href="#r1"/><use x="160" y="160" href="#r1"/><use x="1000" y="160" href="#r1"/><use x="3680" y="40" href="#r1"/><use x="320" y="280" href="#r1"/><use x="3720" y="160" href="#r1"/><use x="160" y="80" href="#r1"/><use x="160" y="280" href="#r1"/><use x="120" y="80" href="#r1"/><use x="3720" y="200" href="#r1"/><use x="320" y="160" href="#r1"/><use x="360" y="160" href="#r1"/><use x="1080" y="280" href="#r1"/><use x="920" y="200" href="#r1"/><use x="200" y="160" href="#r1"/><use x="280" y="200" href="#r1"/><use x="3760" y="40" href="#r1"/><use x="400" y="160" href="#r1"/><use x="1360" y="200" href="#r1"/><use x="520" y="160" href="#r1"/><use x="840" y="160" href="#r1"/><use x="320" y="200" href="#r1"/><use x="1320" y="200" href="#r1"/><use x="360" y="200" href="#r1"/><use x="1040" y="200" href="#r1"/><use x="400" y="200" href="#r1"/><use x="3800" y="160" href="#r1"/><use x="480" y="160" href="#r1"/><use x="1120" y="160" href="#r1"/><use x="440" y="200" href="#r1"/><use x="560" y="160" href="#r1"/><use x="600" y="160" href="#r1"/><use x="480" y="200" href="#r1"/><use x="440" y="80" href="#r1"/><use x="520" y="200" href="#r1"/><use x="3640" y="280" href="#r1"/><use x="240" y="280" href="#r1"/><use x="280" y="280" href="#r1"/><use x="840" y="280" href="#r1"/><use x="1000" y="280" href="#r1"/><use x="640" y="160" href="#r1"/><use x="680" y="160" href="#r1"/><use x="720" y="160" href="#r1"/><use x="560" y="200" href="#r1"/><use x="760" y="160" href="#r1"/><use x="360" y="280" href="#r1"/><use x="280" y="120" href="#r1"/><use x="400" y="280" href="#r1"/><use x="600" y="200" href="#r1"/><use x="3800" y="200" href="#r1"/><use x="40" y="80" href="#r1"/><use x="680" y="200" href="#r1"/><use x="600" y="80" href="#r1"/><use x="640" y="80" href="#r1"/><use x="720" y="200" href="#r1"/><use x="3760" y="200" href="#r1"/><use x="680" y="80" href="#r1"/><use x="800" y="200" href="#r1"/><use x="1680" y="40" href="#r1"/><use x="840" y="200" href="#r1"/><use x="880" y="200" href="#r1"/><use x="200" y="200" href="#r1"/><use x="960" y="200" href="#r1"/><use x="1000" y="200" href="#r1"/><use x="320" y="240" href="#r1"/><use x="240" y="240" href="#r1"/><use x="1920" y="200" href="#r1"/><use x="1080" y="200" href="#r1"/><use x="1120" y="200" href="#r1"/><use x="1160" y="200" href="#r1"/><use x="920" y="240" href="#r1"/><use x="1200" y="200" href="#r1"/><use x="1240" y="200" href="#r1"/><use x="1280" y="200" href="#r1"/><use x="1840" y="200" href="#r1"/><use x="440" y="280" href="#r1"/><use x="360" y="240" href="#r1"/><use x="3840" y="240" href="#r1"/><use x="400" y="240" href="#r1"/><use x="1960" y="200" href="#r1"/><use x="1400" y="200" href="#r1"/><use x="440" y="240" href="#r1"/><use x="1440" y="200" href="#r1"/><use x="480" y="240" href="#r1"/><use x="520" y="240" href="#r1"/><use x="560" y="240" href="#r1"/><use x="600" y="240" href="#r1"/><use x="1480" y="200" href="#r1"/><use x="1520" y="200" href="#r1"/><use x="1560" y="200" href="#r1"/><use x="1600" y="200" href="#r1"/><use x="2560" y="40" href="#r1"/><use x="1640" y="200" href="#r1"/><use x="1680" y="200" href="#r1"/><use x="440" y="120" href="#r1"/><use x="680" y="240" href="#r1"/><use x="520" y="280" href="#r1"/><use x="1720" y="200" href="#r1"/><use x="1760" y="200" href="#r1"/><use x="560" y="280" href="#r1"/><use x="1800" y="200" href="#r1"/><use x="800" y="240" href="#r1"/><use x="600" y="280" href="#r1"/><use x="880" y="240" href="#r1"/><use x="640" y="280" href="#r1"/><use x="680" y="280" href="#r1"/><use x="960" y="240" href="#r1"/><use x="1000" y="240" href="#r1"/><use x="1040" y="240" href="#r1"/><use x="720" y="280" href="#r1"/><use x="760" y="280" href="#r1"/><use x="800" y="280" href="#r1"/><use x="2760" y="40" href="#r1"/><use x="640" y="120" href="#r1"/><use x="920" y="160" href="#r1"/><use x="1360" y="240" href="#r1"/><use x="880" y="280" href="#r1"/><use x="920" y="280" href="#r1"/><use x="960" y="160" href="#r1"/><use x="120" y="200" href="#r1"/><use x="1160" y="240" href="#r1"/><use x="1880" y="200" href="#r1"/><use x="120" y="160" href="#r1"/><use x="1200" y="240" href="#r1"/><use x="1240" y="240" href="#r1"/><use x="1240" y="80" href="#r1"/><use x="3800" y="40" href="#r1"/><use x="80" y="200" href="#r1"/><use x="3840" y="40" href="#r1"/><use x="1320" y="240" href="#r1"/><use x="3800" y="80" href="#r1"/><use x="240" y="400" href="#r1"/><use x="1080" y="360" href="#r1"/><use x="4000" y="40" href="#r1"/><use x="320" y="320" href="#r1"/><use x="280" y="440" href="#r1"/><use x="440" y="440" href="#r1"/><use x="1400" y="240" href="#r1"/><use x="2120" y="320" href="#r1"/><use x="1040" y="160" href="#r1"/><use x="3920" y="240" href="#r1"/><use x="240" y="360" href="#r1"/><use x="1040" y="280" href="#r1"/><use x="400" y="440" href="#r1"/><use x="1520" y="240" href="#r1"/><use x="1560" y="240" href="#r1"/><use x="1440" y="80" href="#r1"/><use x="120" y="280" href="#r1"/><use x="1160" y="160" href="#r1"/><use x="3240" y="40" href="#r1"/><use x="1200" y="160" href="#r1"/><use x="2000" y="200" href="#r1"/><use x="2040" y="200" href="#r1"/><use x="1600" y="240" href="#r1"/><use x="1640" y="240" href="#r1"/><use x="1680" y="240" href="#r1"/><use x="1120" y="280" href="#r1"/><use x="1480" y="80" href="#r1"/><use x="1280" y="160" href="#r1"/><use x="3360" y="40" href="#r1"/><use x="360" y="400" href="#r1"/><use x="2160" y="200" href="#r1"/><use x="1720" y="240" href="#r1"/><use x="1240" y="280" href="#r1"/><use x="1760" y="240" href="#r1"/><use x="1320" y="160" href="#r1"/><use x="1800" y="240" href="#r1"/><use x="1400" y="160" href="#r1"/><use x="1440" y="160" href="#r1"/><use x="1480" y="160" href="#r1"/><use x="1840" y="240" href="#r1"/><use x="1880" y="240" href="#r1"/><use x="1120" y="120" href="#r1"/><use x="1400" y="280" href="#r1"/><use x="2200" y="200" href="#r1"/><use x="2240" y="200" href="#r1"/><use x="440" y="400" href="#r1"/><use x="1920" y="240" href="#r1"/><use x="40" y="280" href="#r1"/><use x="1240" y="120" href="#r1"/><use x="1560" y="160" href="#r1"/><use x="1280" y="120" href="#r1"/><use x="1320" y="120" href="#r1"/><use x="1600" y="160" href="#r1"/><use x="560" y="360" href="#r1"/><use x="2040" y="80" href="#r1"/><use x="1640" y="280" href="#r1"/><use x="4000" y="160" href="#r1"/><use x="280" y="400" href="#r1"/><use x="1680" y="280" href="#r1"/><use x="3880" y="160" href="#r1"/><use x="680" y="360" href="#r1"/><use x="3840" y="160" href="#r1"/><use x="3880" y="280" href="#r1"/><use x="40" y="360" href="#r1"/><use x="1800" y="160" href="#r1"/><use x="1840" y="160" href="#r1"/><use x="1880" y="160" href="#r1"/><use x="2000" y="240" href="#r1"/><use x="2040" y="240" href="#r1"/><use x="2080" y="240" href="#r1"/><use x="2120" y="240" href="#r1"/><use x="2160" y="240" href="#r1"/><use x="1120" y="320" href="#r1"/><use x="1160" y="320" href="#r1"/><use x="2280" y="80" href="#r1"/><use x="1880" y="280" href="#r1"/><use x="1240" y="320" href="#r1"/><use x="1920" y="280" href="#r1"/><use x="1960" y="280" href="#r1"/><use x="2000" y="280" href="#r1"/><use x="2200" y="240" href="#r1"/><use x="2240" y="240" href="#r1"/><use x="2280" y="240" href="#r1"/><use x="2320" y="240" href="#r1"/><use x="1600" y="120" href="#r1"/><use x="2360" y="240" href="#r1"/><use x="3440" y="40" href="#r1"/><use x="1680" y="120" href="#r1"/><use x="2400" y="240" href="#r1"/><use x="2440" y="240" href="#r1"/><use x="2040" y="280" href="#r1"/><use x="2480" y="240" href="#r1"/><use x="2080" y="280" href="#r1"/><use x="2520" y="240" href="#r1"/><use x="2120" y="280" href="#r1"/><use x="2560" y="240" href="#r1"/><use x="3480" y="40" href="#r1"/><use x="2160" y="280" href="#r1"/><use x="1960" y="320" href="#r1"/><use x="320" y="440" href="#r1"/><use x="1920" y="320" href="#r1"/><use x="2200" y="280" href="#r1"/><use x="2600" y="240" href="#r1"/><use x="1760" y="120" href="#r1"/><use x="2040" y="320" href="#r1"/><use x="2160" y="160" href="#r1"/><use x="2240" y="280" href="#r1"/><use x="3880" y="200" href="#r1"/><use x="2640" y="240" href="#io"/><use x="2680" y="240" href="#io"/><use x="2720" y="240" href="#io"/><use x="2200" y="160" href="#io"/><use x="440" y="320" href="#io"/><use x="2240" y="160" href="#io"/><use x="2280" y="160" href="#io"/><use x="2520" y="200" href="#io"/><use x="2760" y="240" href="#io"/><use x="2320" y="280" href="#io"/><use x="2400" y="280" href="#io"/><use x="2440" y="280" href="#io"/><use x="2480" y="280" href="#io"/><use x="1720" y="320" href="#io"/><use x="2560" y="200" href="#io"/><use x="2200" y="320" href="#io"/><use x="2360" y="320" href="#io"/><use x="3960" y="200" href="#io"/><use x="3920" y="160" href="#io"/><use x="3960" y="240" href="#io"/><use x="3960" y="120" href="#io"/><use x="2160" y="320" href="#io"/><use x="2680" y="200" href="#io"/><use x="3920" y="80" href="#io"/><use x="2400" y="160" href="#io"/><use x="2440" y="160" href="#io"/><use x="2480" y="160" href="#io"/><use x="3920" y="280" href="#io"/><use x="2840" y="240" href="#io"/><use x="120" y="520" href="#io"/><use x="3920" y="200" href="#io"/><use x="4000" y="200" href="#io"/><use x="480" y="400" href="#io"/><use x="3840" y="280" href="#io"/><use x="200" y="2960" href="#io"/><use x="2680" y="280" href="#io"/><use x="3960" y="80" href="#io"/><use x="200" y="680" href="#io"/><use x="2240" y="320" href="#io"/><use x="2720" y="280" href="#io"/><use x="2840" y="200" href="#io"/><use x="1040" y="320" href="#io"/><use x="2080" y="320" href="#io"/><use x="320" y="520" href="#io"/><use x="2840" y="280" href="#io"/><use x="1120" y="360" href="#io"/><use x="600" y="400" href="#io"/><use x="2880" y="240" href="#io"/><use x="3920" y="120" href="#io"/><use x="400" y="400" href="#io"/><use x="2280" y="320" href="#io"/><use x="200" y="480" href="#io"/><use x="2960" y="240" href="#io"/><use x="720" y="320" href="#io"/><use x="320" y="480" href="#io"/><use x="3960" y="280" href="#io"/><use x="2320" y="320" href="#io"/><use x="2560" y="160" href="#io"/><use x="360" y="480" href="#io"/><use x="2880" y="280" href="#io"/><use x="4000" y="240" href="#io"/><use x="4000" y="120" href="#io"/><use x="360" y="440" href="#io"/><use x="3920" y="40" href="#io"/><use x="3960" y="160" href="#io"/><use x="2480" y="120" href="#io"/><use x="3560" y="40" href="#io"/><use x="4000" y="80" href="#io"/><use x="2960" y="280" href="#io"/><use x="2640" y="160" href="#io"/><use x="3000" y="280" href="#io"/><use x="3960" y="40" href="#io"/><use x="320" y="400" href="#io"/><use x="4000" y="280" href="#io"/><use x="2680" y="160" href="#io"/><use x="600" y="360" href="#io"/><use x="640" y="360" href="#io"/><use x="3200" y="240" href="#io"/><use x="2720" y="160" href="#io"/><use x="3240" y="240" href="#io"/><use x="3880" y="40" href="#io"/><line x1="2660" x2="780" y1="260" y2="260"/><line x1="2660" x2="1380" y1="260" y2="220"/><line x1="2660" x2="1780" y1="260" y2="260"/><line x1="2660" x2="3860" y1="260" y2="60"/><line x1="2700" x2="780" y1="260" y2="260"/><line x1="2700" x2="540" y1="260" y2="180"/><line x1="2700" x2="1340" y1="260" y2="180"/><line x1="2700" x2="1340" y1="260" y2="260"/><line x1="2740" x2="780" y1="260" y2="260"/><line x1="2740" x2="860" y1="260" y2="180"/><line x1="2740" x2="1820" y1="260" y2="260"/><line x1="2740" x2="3820" y1="260" y2="100"/><line x1="2220" x2="780" y1="180" y2="260"/><line x1="2220" x2="340" y1="180" y2="220"/><line x1="2220" x2="1420" y1="180" y2="180"/><line x1="2220" x2="260" y1="180" y2="420"/><line x1="460" x2="780" y1="340" y2="260"/><line x1="460" x2="1340" y1="340" y2="220"/><line x1="460" x2="1460" y1="340" y2="180"/><line x1="460" x2="1100" y1="340" y2="380"/><line x1="2260" x2="780" y1="180" y2="260"/><line x1="2260" x2="380" y1="180" y2="220"/><line x1="2260" x2="1500" y1="180" y2="180"/><line x1="2260" x2="4020" y1="180" y2="60"/><line x1="2300" x2="780" y1="180" y2="260"/><line x1="2300" x2="1060" y1="180" y2="220"/><line x1="2300" x2="1860" y1="180" y2="260"/><line x1="2300" x2="340" y1="180" y2="340"/><line x1="2540" x2="780" y1="220" y2="260"/><line x1="2540" x2="420" y1="220" y2="220"/><line x1="2540" x2="1900" y1="220" y2="260"/><line x1="2540" x2="300" y1="220" y2="460"/><line x1="2780" x2="60" y1="260" y2="260"/><line x1="2780" x2="3820" y1="260" y2="180"/><line x1="2780" x2="460" y1="260" y2="460"/><line x1="2340" x2="60" y1="300" y2="260"/><line x1="2340" x2="500" y1="300" y2="180"/><line x1="2340" x2="1420" y1="300" y2="260"/><line x1="2420" x2="60" y1="300" y2="260"/><line x1="2420" x2="1140" y1="300" y2="180"/><line x1="2420" x2="2140" y1="300" y2="340"/><line x1="2460" x2="60" y1="300" y2="260"/><line x1="2460" x2="660" y1="300" y2="180"/><line x1="2460" x2="1060" y1="300" y2="180"/><line x1="2500" x2="60" y1="300" y2="260"/><line x1="2500" x2="700" y1="300" y2="180"/><line x1="2500" x2="3940" y1="300" y2="260"/><line x1="1740" x2="60" y1="340" y2="260"/><line x1="1740" x2="740" y1="340" y2="180"/><line x1="1740" x2="260" y1="340" y2="380"/><line x1="2580" x2="60" y1="220" y2="260"/><line x1="2580" x2="580" y1="220" y2="220"/><line x1="2580" x2="1060" y1="220" y2="300"/><line x1="2220" x2="60" y1="340" y2="260"/><line x1="2220" x2="780" y1="340" y2="180"/><line x1="2220" x2="420" y1="340" y2="460"/><line x1="2380" x2="1140" y1="340" y2="140"/><line x1="3980" x2="1420" y1="220" y2="300"/><line x1="3940" x2="2220" y1="180" y2="220"/><line x1="3980" x2="2260" y1="260" y2="220"/><line x1="3980" x2="1340" y1="140" y2="140"/><line x1="2180" x2="3860" y1="340" y2="180"/><line x1="2180" x2="2060" y1="340" y2="260"/><line x1="2700" x2="100" y1="220" y2="60"/><line x1="2700" x2="2980" y1="220" y2="100"/><line x1="2700" x2="3100" y1="220" y2="260"/><line x1="3940" x2="3780" y1="100" y2="60"/><line x1="2420" x2="300" y1="180" y2="220"/><line x1="2460" x2="3340" y1="180" y2="180"/><line x1="2460" x2="3900" y1="180" y2="140"/><line x1="2460" x2="3820" y1="180" y2="260"/><line x1="2460" x2="140" y1="180" y2="100"/><line x1="2460" x2="1900" y1="180" y2="180"/><line x1="2460" x2="2020" y1="180" y2="260"/><line x1="2500" x2="1100" y1="180" y2="300"/><line x1="3940" x2="380" y1="300" y2="180"/><line x1="2860" x2="3700" y1="260" y2="60"/><line x1="2860" x2="300" y1="260" y2="420"/><line x1="2860" x2="3740" y1="260" y2="180"/><line x1="2860" x2="180" y1="260" y2="300"/><line x1="2860" x2="420" y1="260" y2="180"/><line x1="2860" x2="2180" y1="260" y2="180"/><line x1="140" x2="3700" y1="540" y2="60"/><line x1="140" x2="300" y1="540" y2="420"/><line x1="3940" x2="340" y1="220" y2="380"/><line x1="4020" x2="340" y1="220" y2="380"/><line x1="500" x2="2620" y1="420" y2="300"/><line x1="3860" x2="2620" y1="300" y2="300"/><line x1="220" x2="3300" y1="2980" y2="60"/><line x1="220" x2="3020" y1="2980" y2="60"/><line x1="220" x2="260" y1="2980" y2="2900"/><line x1="220" x2="300" y1="2980" y2="2900"/><line x1="2700" x2="3300" y1="300" y2="60"/><line x1="3980" x2="3340" y1="100" y2="100"/><line x1="3980" x2="3420" y1="100" y2="300"/><line x1="220" x2="3380" y1="700" y2="100"/><line x1="220" x2="300" y1="700" y2="500"/><line x1="2260" x2="2540" y1="340" y2="140"/><line x1="2260" x2="900" y1="340" y2="380"/><line x1="2740" x2="3620" y1="300" y2="60"/><line x1="2740" x2="500" y1="300" y2="460"/><line x1="2860" x2="3220" y1="220" y2="300"/><line x1="2860" x2="3500" y1="220" y2="260"/><line x1="1060" x2="3340" y1="340" y2="100"/><line x1="1060" x2="3380" y1="340" y2="100"/><line x1="1060" x2="2540" y1="340" y2="140"/><line x1="1060" x2="3620" y1="340" y2="60"/><line x1="1060" x2="3220" y1="340" y2="300"/><line x1="1060" x2="2820" y1="340" y2="180"/><line x1="2100" x2="2260" y1="340" y2="300"/><line x1="2100" x2="3900" y1="340" y2="220"/><line x1="340" x2="2300" y1="540" y2="100"/><line x1="340" x2="2260" y1="540" y2="300"/><line x1="2860" x2="1900" y1="300" y2="300"/><line x1="2860" x2="2260" y1="300" y2="300"/><line x1="1140" x2="1260" y1="380" y2="340"/><line x1="1140" x2="2260" y1="380" y2="300"/><line x1="620" x2="1940" y1="420" y2="300"/><line x1="620" x2="2260" y1="420" y2="300"/><line x1="2900" x2="1980" y1="260" y2="300"/><line x1="2900" x2="2260" y1="260" y2="300"/><line x1="3940" x2="2020" y1="140" y2="300"/><line x1="3940" x2="3900" y1="140" y2="220"/><line x1="420" x2="2220" y1="420" y2="260"/><line x1="420" x2="3900" y1="420" y2="220"/><line x1="2300" x2="2260" y1="340" y2="260"/><line x1="2300" x2="3900" y1="340" y2="220"/><line x1="220" x2="2300" y1="500" y2="260"/><line x1="220" x2="3900" y1="500" y2="220"/><line x1="2980" x2="2340" y1="260" y2="260"/><line x1="2980" x2="3900" y1="260" y2="220"/><line x1="740" x2="1620" y1="340" y2="140"/><line x1="740" x2="3900" y1="340" y2="220"/><line x1="340" x2="140" y1="500" y2="60"/><line x1="340" x2="380" y1="500" y2="420"/><line x1="340" x2="2300" y1="500" y2="100"/><line x1="340" x2="2180" y1="500" y2="220"/><line x1="3980" x2="1900" y1="300" y2="300"/><line x1="2340" x2="1260" y1="340" y2="340"/><line x1="2580" x2="1940" y1="180" y2="300"/><line x1="380" x2="1980" y1="500" y2="300"/><line x1="2900" x2="2020" y1="300" y2="300"/><line x1="4020" x2="2220" y1="260" y2="260"/><line x1="4020" x2="2260" y1="140" y2="260"/><line x1="380" x2="2300" y1="460" y2="260"/><line x1="3940" x2="2340" y1="60" y2="260"/><line x1="3980" x2="1620" y1="180" y2="140"/><line x1="2500" x2="900" y1="140" y2="140"/><line x1="3580" x2="380" y1="60" y2="60"/><line x1="3580" x2="740" y1="60" y2="100"/><line x1="4020" x2="180" y1="100" y2="140"/><line x1="4020" x2="3580" y1="100" y2="220"/><line x1="2980" x2="60" y1="300" y2="60"/><line x1="2980" x2="420" y1="300" y2="100"/><line x1="2980" x2="900" y1="300" y2="180"/><line x1="2980" x2="1100" y1="300" y2="260"/><line x1="2660" x2="580" y1="180" y2="100"/><line x1="2660" x2="860" y1="180" y2="60"/><line x1="2660" x2="3740" y1="180" y2="140"/><line x1="2660" x2="3140" y1="180" y2="300"/><line x1="2660" x2="3740" y1="180" y2="100"/><line x1="2660" x2="1700" y1="180" y2="60"/><line x1="3020" x2="2220" y1="300" y2="300"/><line x1="3020" x2="2060" y1="300" y2="340"/><line x1="3980" x2="300" y1="60" y2="540"/><line x1="340" x2="500" y1="420" y2="300"/><line x1="4020" x2="540" y1="300" y2="140"/><line x1="2700" x2="2220" y1="180" y2="60"/><line x1="2700" x2="2300" y1="180" y2="60"/><line x1="2700" x2="3860" y1="180" y2="140"/><line x1="2700" x2="740" y1="180" y2="260"/><line x1="620" x2="500" y1="380" y2="300"/><line x1="620" x2="3820" y1="380" y2="140"/><line x1="620" x2="860" y1="380" y2="260"/><line x1="660" x2="980" y1="380" y2="380"/><line x1="660" x2="660" y1="380" y2="260"/><line x1="660" x2="500" y1="380" y2="300"/><line x1="660" x2="860" y1="380" y2="260"/><line x1="660" x2="3820" y1="380" y2="140"/><line x1="660" x2="2380" y1="380" y2="260"/><line x1="3220" x2="100" y1="260" y2="180"/><line x1="3220" x2="2540" y1="260" y2="60"/><line x1="3220" x2="3820" y1="260" y2="140"/><line x1="2740" x2="180" y1="180" y2="260"/><line x1="3260" x2="3740" y1="260" y2="60"/><line x1="3260" x2="140" y1="260" y2="140"/><line x1="3260" x2="3660" y1="260" y2="60"/><line x1="3260" x2="140" y1="260" y2="60"/><line x1="3900" x2="3620" y1="60" y2="220"/><line x1="3900" x2="3540" y1="60" y2="180"/></svg>