<svg viewBox="0 0 4080 4080" xmlns="http://www.w3.org/2000/svg">
  <style type="text/css">
    @import "mysvg.css"
  </style>

  <!-- Create mask that we'll use to define a slight gradient -->
  <mask maskUnits="userSpaceOnUse" id="fade">
    <!-- Here's that slight gradient -->
    <linearGradient id="gradient" x1="0" y1="0" x2="0" y2="100%">
      <stop offset ="0" style="stop-color: #FFFFFF" />
      <stop offset ="1" style="stop-color: #000000" />
    </linearGradient>
    <!-- The canvas for our mask -->
    <rect fill="url(#gradient)" width="100%" height="100%" />
  </mask>
    
  <!-- Let's define the pattern -->
  <!-- The width and height should be double the circle radius we plan to use -->
  <pattern id="pattern-circles" x="0" y="0" width="40" height="40" patternUnits="userSpaceOnUse">
    <!-- Now let's draw the circle -->
    <!-- We're going to define the `fill` in the CSS for flexible use -->
    <circle class="cell" opacity="0.2" cx="20" cy="20" r="15" />
  </pattern>

  <!-- Let's define the pattern -->
  <!-- The width and height should be double the circle radius we plan to use -->
  <pattern id="pattern-io" x="0" y="0" width="40" height="40" patternUnits="userSpaceOnUse">
    <!-- Now let's draw the circle -->
    <!-- We're going to define the `fill` in the CSS for flexible use -->
    <circle class="iopad" opacity="0.2" cx="20" cy="20" r="15" />
  </pattern>

  <!-- The canvas with our applied pattern -->
  <rect x="40" y="40" width="4000" height="4000" fill="url(#pattern-circles)" />

  <rect x="40" y="0" width="4000" height="40" fill="url(#pattern-io)" />
  <rect x="40" y="4040" width="4000" height="40" fill="url(#pattern-io)" />
  <rect x="0" y="40" width="40" height="4000" fill="url(#pattern-io)" />
  <rect x="4040" y="40" width="40" height="4000" fill="url(#pattern-io)" />
  <defs>
    <!-- A circle of radius 200 -->
    <circle id = "s1" cx = "200" cy = "200" r = "200" fill = "yellow" stroke = "black" stroke-width = "3"/>
    <!-- An ellipse (rx=200,ry=150) -->
    <ellipse id = "s2" cx = "200" cy = "150" rx = "200" ry = "150" fill = "salmon" stroke = "black" stroke-width = "3"/>
    <rect id = "r1" width="35" height="35" fill = "#FF00A7" opacity="0.2" stroke = "black" stroke-width = "3"/>
    <rect id = "io" width="35" height="35" fill = "#00E7FF" opacity="0.2" stroke = "black" stroke-width = "3"/>
  </defs>
<use x="160" y="3880" href="#r1"/>
<use x="40" y="120" href="#r1"/>
<use x="40" y="200" href="#r1"/>
<use x="280" y="80" href="#r1"/>
<use x="40" y="160" href="#r1"/>
<use x="280" y="120" href="#r1"/>
<use x="80" y="3880" href="#r1"/>
<use x="120" y="280" href="#r1"/>
<use x="40" y="3840" href="#r1"/>
<use x="80" y="440" href="#r1"/>
<use x="280" y="440" href="#r1"/>
<use x="280" y="480" href="#r1"/>
<use x="80" y="160" href="#r1"/>
<use x="120" y="200" href="#r1"/>
<use x="120" y="40" href="#r1"/>
<use x="120" y="320" href="#r1"/>
<use x="40" y="40" href="#r1"/>
<use x="160" y="160" href="#r1"/>
<use x="40" y="80" href="#r1"/>
<use x="80" y="40" href="#r1"/>
<use x="40" y="240" href="#r1"/>
<use x="160" y="360" href="#r1"/>
<use x="200" y="40" href="#r1"/>
<use x="80" y="280" href="#r1"/>
<use x="40" y="320" href="#r1"/>
<use x="520" y="360" href="#r1"/>
<use x="320" y="320" href="#r1"/>
<use x="80" y="120" href="#r1"/>
<use x="80" y="320" href="#r1"/>
<use x="80" y="360" href="#r1"/>
<use x="120" y="400" href="#r1"/>
<use x="40" y="360" href="#r1"/>
<use x="40" y="3920" href="#r1"/>
<use x="120" y="440" href="#r1"/>
<use x="80" y="400" href="#r1"/>
<use x="160" y="400" href="#r1"/>
<use x="40" y="440" href="#r1"/>
<use x="80" y="80" href="#r1"/>
<use x="200" y="840" href="#r1"/>
<use x="80" y="200" href="#r1"/>
<use x="80" y="3920" href="#r1"/>
<use x="40" y="480" href="#r1"/>
<use x="40" y="520" href="#r1"/>
<use x="40" y="560" href="#r1"/>
<use x="80" y="520" href="#r1"/>
<use x="40" y="600" href="#r1"/>
<use x="40" y="640" href="#r1"/>
<use x="40" y="680" href="#r1"/>
<use x="40" y="720" href="#r1"/>
<use x="40" y="3960" href="#r1"/>
<use x="40" y="800" href="#r1"/>
<use x="40" y="880" href="#r1"/>
<use x="2440" y="40" href="#r1"/>
<use x="40" y="1000" href="#r1"/>
<use x="40" y="1040" href="#r1"/>
<use x="120" y="480" href="#r1"/>
<use x="40" y="1080" href="#r1"/>
<use x="160" y="480" href="#r1"/>
<use x="40" y="1120" href="#r1"/>
<use x="40" y="1160" href="#r1"/>
<use x="40" y="1200" href="#r1"/>
<use x="80" y="3960" href="#r1"/>
<use x="40" y="1280" href="#r1"/>
<use x="40" y="1320" href="#r1"/>
<use x="160" y="520" href="#r1"/>
<use x="80" y="600" href="#r1"/>
<use x="40" y="1360" href="#r1"/>
<use x="160" y="560" href="#r1"/>
<use x="40" y="1400" href="#r1"/>
<use x="80" y="640" href="#r1"/>
<use x="80" y="680" href="#r1"/>
<use x="40" y="1440" href="#r1"/>
<use x="40" y="1480" href="#r1"/>
<use x="80" y="720" href="#r1"/>
<use x="160" y="600" href="#r1"/>
<use x="120" y="560" href="#r1"/>
<use x="80" y="760" href="#r1"/>
<use x="200" y="1680" href="#r1"/>
<use x="40" y="1520" href="#r1"/>
<use x="40" y="1560" href="#r1"/>
<use x="40" y="1600" href="#r1"/>
<use x="120" y="600" href="#r1"/>
<use x="40" y="1640" href="#r1"/>
<use x="80" y="800" href="#r1"/>
<use x="40" y="1680" href="#r1"/>
<use x="280" y="1960" href="#r1"/>
<use x="80" y="840" href="#r1"/>
<use x="80" y="880" href="#r1"/>
<use x="280" y="2080" href="#r1"/>
<use x="120" y="640" href="#r1"/>
<use x="120" y="680" href="#r1"/>
<use x="80" y="920" href="#r1"/>
<use x="280" y="2320" href="#r1"/>
<use x="40" y="1760" href="#r1"/>
<use x="40" y="1800" href="#r1"/>
<use x="160" y="640" href="#r1"/>
<use x="280" y="2360" href="#r1"/>
<use x="80" y="960" href="#r1"/>
<use x="240" y="760" href="#r1"/>
<use x="200" y="2360" href="#r1"/>
<use x="80" y="1000" href="#r1"/>
<use x="120" y="720" href="#r1"/>
<use x="240" y="880" href="#r1"/>
<use x="160" y="680" href="#r1"/>
<use x="120" y="760" href="#r1"/>
<use x="160" y="720" href="#r1"/>
<use x="80" y="1040" href="#r1"/>
<use x="320" y="1600" href="#r1"/>
<use x="80" y="1080" href="#r1"/>
<use x="40" y="1880" href="#r1"/>
<use x="240" y="1000" href="#r1"/>
<use x="280" y="2640" href="#r1"/>
<use x="160" y="760" href="#r1"/>
<use x="120" y="800" href="#r1"/>
<use x="40" y="1960" href="#r1"/>
<use x="280" y="2480" href="#r1"/>
<use x="160" y="840" href="#r1"/>
<use x="40" y="2000" href="#r1"/>
<use x="120" y="840" href="#r1"/>
<use x="40" y="2040" href="#r1"/>
<use x="80" y="1120" href="#r1"/>
<use x="80" y="1160" href="#r1"/>
<use x="40" y="2080" href="#r1"/>
<use x="80" y="1200" href="#r1"/>
<use x="80" y="1240" href="#r1"/>
<use x="40" y="2120" href="#r1"/>
<use x="120" y="880" href="#r1"/>
<use x="40" y="2160" href="#r1"/>
<use x="280" y="40" href="#r1"/>
<use x="200" y="2760" href="#r1"/>
<use x="280" y="160" href="#r1"/>
<use x="40" y="2200" href="#r1"/>
<use x="120" y="960" href="#r1"/>
<use x="240" y="1280" href="#r1"/>
<use x="120" y="1000" href="#r1"/>
<use x="40" y="2240" href="#r1"/>
<use x="40" y="2280" href="#r1"/>
<use x="40" y="2320" href="#r1"/>
<use x="40" y="2360" href="#r1"/>
<use x="160" y="1000" href="#r1"/>
<use x="80" y="1280" href="#r1"/>
<use x="80" y="1320" href="#r1"/>
<use x="40" y="2400" href="#r1"/>
<use x="80" y="1360" href="#r1"/>
<use x="120" y="1040" href="#r1"/>
<use x="120" y="1080" href="#r1"/>
<use x="120" y="1120" href="#r1"/>
<use x="120" y="1160" href="#r1"/>
<use x="40" y="4000" href="#r1"/>
<use x="80" y="1400" href="#r1"/>
<use x="160" y="1040" href="#r1"/>
<use x="160" y="1080" href="#r1"/>
<use x="120" y="1240" href="#r1"/>
<use x="40" y="2480" href="#r1"/>
<use x="80" y="1440" href="#r1"/>
<use x="40" y="2520" href="#r1"/>
<use x="120" y="1280" href="#r1"/>
<use x="120" y="1320" href="#r1"/>
<use x="120" y="1360" href="#r1"/>
<use x="240" y="1760" href="#r1"/>
<use x="40" y="2560" href="#r1"/>
<use x="40" y="2600" href="#r1"/>
<use x="240" y="1840" href="#r1"/>
<use x="280" y="1000" href="#r1"/>
<use x="240" y="1880" href="#r1"/>
<use x="240" y="1960" href="#r1"/>
<use x="240" y="2240" href="#r1"/>
<use x="160" y="1120" href="#r1"/>
<use x="280" y="1160" href="#r1"/>
<use x="240" y="2080" href="#r1"/>
<use x="240" y="2200" href="#r1"/>
<use x="160" y="1160" href="#r1"/>
<use x="320" y="440" href="#r1"/>
<use x="80" y="1480" href="#r1"/>
<use x="320" y="520" href="#r1"/>
<use x="40" y="2640" href="#r1"/>
<use x="40" y="2680" href="#r1"/>
<use x="320" y="560" href="#r1"/>
<use x="280" y="1400" href="#r1"/>
<use x="240" y="2400" href="#r1"/>
<use x="280" y="1480" href="#r1"/>
<use x="120" y="1480" href="#r1"/>
<use x="160" y="1320" href="#r1"/>
<use x="40" y="2720" href="#r1"/>
<use x="160" y="1360" href="#r1"/>
<use x="80" y="1520" href="#r1"/>
<use x="40" y="2800" href="#r1"/>
<use x="120" y="1520" href="#r1"/>
<use x="40" y="2840" href="#r1"/>
<use x="160" y="1400" href="#r1"/>
<use x="80" y="1600" href="#r1"/>
<use x="80" y="1640" href="#r1"/>
<use x="280" y="1720" href="#r1"/>
<use x="40" y="2880" href="#r1"/>
<use x="120" y="1560" href="#r1"/>
<use x="80" y="1680" href="#r1"/>
<use x="80" y="1720" href="#r1"/>
<use x="40" y="2920" href="#r1"/>
<use x="80" y="1760" href="#r1"/>
<use x="40" y="3000" href="#r1"/>
<use x="40" y="3040" href="#r1"/>
<use x="80" y="1800" href="#r1"/>
<use x="160" y="1440" href="#r1"/>
<use x="160" y="1480" href="#r1"/>
<use x="80" y="1880" href="#r1"/>
<use x="280" y="1800" href="#r1"/>
<use x="120" y="1600" href="#r1"/>
<use x="160" y="1520" href="#r1"/>
<use x="320" y="1120" href="#r1"/>
<use x="320" y="1160" href="#r1"/>
<use x="360" y="120" href="#r1"/>
<use x="280" y="2000" href="#r1"/>
<use x="360" y="440" href="#r1"/>
<use x="320" y="1200" href="#r1"/>
<use x="80" y="1920" href="#r1"/>
<use x="80" y="1960" href="#r1"/>
<use x="40" y="3160" href="#r1"/>
<use x="80" y="2040" href="#r1"/>
<use x="120" y="1640" href="#r1"/>
<use x="120" y="1680" href="#r1"/>
<use x="160" y="1560" href="#r1"/>
<use x="160" y="1600" href="#r1"/>
<use x="80" y="2120" href="#r1"/>
<use x="160" y="1640" href="#r1"/>
<use x="160" y="1680" href="#r1"/>
<use x="40" y="3280" href="#r1"/>
<use x="160" y="1720" href="#r1"/>
<use x="160" y="1760" href="#r1"/>
<use x="240" y="3120" href="#r1"/>
<use x="120" y="1760" href="#r1"/>
<use x="120" y="1800" href="#r1"/>
<use x="240" y="3200" href="#r1"/>
<use x="120" y="1840" href="#r1"/>
<use x="200" y="3960" href="#r1"/>
<use x="120" y="1880" href="#r1"/>
<use x="80" y="2320" href="#r1"/>
<use x="280" y="2680" href="#r1"/>
<use x="80" y="2360" href="#r1"/>
<use x="280" y="2600" href="#r1"/>
<use x="80" y="2400" href="#r1"/>
<use x="120" y="1920" href="#r1"/>
<use x="120" y="1960" href="#r1"/>
<use x="80" y="2440" href="#r1"/>
<use x="200" y="2960" href="#r1"/>
<use x="120" y="2000" href="#r1"/>
<use x="80" y="2480" href="#r1"/>
<use x="160" y="1840" href="#r1"/>
<use x="120" y="2040" href="#r1"/>
<use x="320" y="280" href="#r1"/>
<use x="80" y="2520" href="#r1"/>
<use x="120" y="2080" href="#r1"/>
<use x="80" y="2560" href="#r1"/>
<use x="200" y="3000" href="#r1"/>
<use x="240" y="3240" href="#r1"/>
<use x="120" y="2120" href="#r1"/>
<use x="120" y="2160" href="#r1"/>
<use x="80" y="2600" href="#r1"/>
<use x="160" y="1880" href="#r1"/>
<use x="320" y="40" href="#r1"/>
<use x="80" y="2640" href="#r1"/>
<use x="160" y="1920" href="#r1"/>
<use x="200" y="3040" href="#r1"/>
<use x="240" y="3280" href="#r1"/>
<use x="280" y="200" href="#r1"/>
<use x="120" y="2200" href="#r1"/>
<use x="80" y="2680" href="#r1"/>
<use x="320" y="120" href="#r1"/>
<use x="80" y="2720" href="#r1"/>
<use x="80" y="2760" href="#r1"/>
<use x="80" y="2800" href="#r1"/>
<use x="80" y="2840" href="#r1"/>
<use x="80" y="2880" href="#r1"/>
<use x="120" y="2240" href="#r1"/>
<use x="80" y="2920" href="#r1"/>
<use x="120" y="2280" href="#r1"/>
<use x="280" y="720" href="#r1"/>
<use x="80" y="2960" href="#r1"/>
<use x="320" y="160" href="#r1"/>
<use x="320" y="200" href="#r1"/>
<use x="80" y="3000" href="#r1"/>
<use x="80" y="3040" href="#r1"/>
<use x="80" y="3080" href="#r1"/>
<use x="120" y="2320" href="#r1"/>
<use x="80" y="3120" href="#r1"/>
<use x="320" y="1640" href="#r1"/>
<use x="280" y="800" href="#r1"/>
<use x="280" y="920" href="#r1"/>
<use x="80" y="3160" href="#r1"/>
<use x="200" y="3080" href="#r1"/>
<use x="80" y="3200" href="#r1"/>
<use x="240" y="3320" href="#r1"/>
<use x="200" y="3120" href="#r1"/>
<use x="120" y="2360" href="#r1"/>
<use x="120" y="2400" href="#r1"/>
<use x="120" y="2440" href="#r1"/>
<use x="120" y="2480" href="#r1"/>
<use x="80" y="3240" href="#r1"/>
<use x="120" y="2520" href="#r1"/>
<use x="120" y="2560" href="#r1"/>
<use x="280" y="1200" href="#r1"/>
<use x="80" y="3280" href="#r1"/>
<use x="160" y="1960" href="#r1"/>
<use x="160" y="2000" href="#r1"/>
<use x="120" y="2600" href="#r1"/>
<use x="120" y="2640" href="#r1"/>
<use x="120" y="2680" href="#r1"/>
<use x="120" y="2720" href="#r1"/>
<use x="120" y="2760" href="#r1"/>
<use x="80" y="3320" href="#r1"/>
<use x="80" y="3360" href="#r1"/>
<use x="280" y="1520" href="#r1"/>
<use x="160" y="2040" href="#r1"/>
<use x="120" y="2800" href="#r1"/>
<use x="240" y="3360" href="#r1"/>
<use x="160" y="2080" href="#r1"/>
<use x="120" y="2840" href="#r1"/>
<use x="120" y="2880" href="#r1"/>
<use x="80" y="3400" href="#r1"/>
<use x="40" y="3440" href="#r1"/>
<use x="40" y="3400" href="#r1"/>
<use x="40" y="3480" href="#r1"/>
<use x="80" y="3440" href="#r1"/>
<use x="160" y="2120" href="#r1"/>
<use x="80" y="3480" href="#r1"/>
<use x="40" y="3520" href="#r1"/>
<use x="120" y="2920" href="#r1"/>
<use x="160" y="4000" href="#r1"/>
<use x="80" y="3520" href="#r1"/>
<use x="80" y="3560" href="#r1"/>
<use x="200" y="3160" href="#r1"/>
<use x="160" y="2200" href="#r1"/>
<use x="120" y="2960" href="#r1"/>
<use x="120" y="3000" href="#r1"/>
<use x="240" y="3400" href="#r1"/>
<use x="160" y="2240" href="#r1"/>
<use x="80" y="3600" href="#r1"/>
<use x="160" y="2280" href="#r1"/>
<use x="120" y="3040" href="#r1"/>
<use x="160" y="2320" href="#r1"/>
<use x="120" y="3080" href="#r1"/>
<use x="160" y="2360" href="#r1"/>
<use x="280" y="2040" href="#r1"/>
<use x="320" y="1240" href="#r1"/>
<use x="360" y="480" href="#r1"/>
<use x="280" y="2120" href="#r1"/>
<use x="400" y="400" href="#r1"/>
<use x="40" y="3560" href="#r1"/>
<use x="320" y="1280" href="#r1"/>
<use x="320" y="1320" href="#r1"/>
<use x="280" y="2280" href="#r1"/>
<use x="240" y="3440" href="#r1"/>
<use x="160" y="2400" href="#r1"/>
<use x="120" y="3120" href="#r1"/>
<use x="120" y="3160" href="#r1"/>
<use x="160" y="2440" href="#r1"/>
<use x="200" y="3200" href="#r1"/>
<use x="160" y="2480" href="#r1"/>
<use x="160" y="2520" href="#r1"/>
<use x="120" y="3200" href="#r1"/>
<use x="120" y="3240" href="#r1"/>
<use x="160" y="2560" href="#r1"/>
<use x="160" y="2600" href="#r1"/>
<use x="120" y="3280" href="#r1"/>
<use x="80" y="3640" href="#r1"/>
<use x="80" y="3680" href="#r1"/>
<use x="120" y="3320" href="#r1"/>
<use x="120" y="3360" href="#r1"/>
<use x="240" y="3480" href="#r1"/>
<use x="400" y="200" href="#r1"/>
<use x="80" y="3840" href="#r1"/>
<use x="240" y="3520" href="#r1"/>
<use x="160" y="2640" href="#r1"/>
<use x="240" y="3560" href="#r1"/>
<use x="160" y="2680" href="#r1"/>
<use x="240" y="3600" href="#r1"/>
<use x="160" y="2720" href="#r1"/>
<use x="240" y="3640" href="#r1"/>
<use x="200" y="3240" href="#r1"/>
<use x="160" y="2760" href="#r1"/>
<use x="120" y="3400" href="#r1"/>
<use x="40" y="3600" href="#r1"/>
<use x="200" y="3280" href="#r1"/>
<use x="160" y="2800" href="#r1"/>
<use x="120" y="3440" href="#r1"/>
<use x="120" y="3480" href="#r1"/>
<use x="200" y="3320" href="#r1"/>
<use x="200" y="3360" href="#r1"/>
<use x="280" y="360" href="#r1"/>
<use x="120" y="3520" href="#r1"/>
<use x="160" y="2840" href="#r1"/>
<use x="200" y="3400" href="#r1"/>
<use x="160" y="2880" href="#r1"/>
<use x="160" y="2920" href="#r1"/>
<use x="160" y="2960" href="#r1"/>
<use x="240" y="3920" href="#r1"/>
<use x="200" y="3440" href="#r1"/>
<use x="280" y="520" href="#r1"/>
<use x="160" y="3000" href="#r1"/>
<use x="120" y="3560" href="#r1"/>
<use x="160" y="3040" href="#r1"/>
<use x="240" y="3720" href="#r1"/>
<use x="280" y="640" href="#r1"/>
<use x="200" y="3480" href="#r1"/>
<use x="160" y="3080" href="#r1"/>
<use x="160" y="3120" href="#r1"/>
<use x="80" y="3800" href="#r1"/>
<use x="40" y="3640" href="#r1"/>
<use x="160" y="3160" href="#r1"/>
<use x="160" y="3200" href="#r1"/>
<use x="280" y="760" href="#r1"/>
<use x="80" y="3760" href="#r1"/>
<use x="400" y="480" href="#r1"/>
<use x="480" y="240" href="#r1"/>
<use x="360" y="200" href="#r1"/>
<use x="160" y="3240" href="#r1"/>
<use x="280" y="880" href="#r1"/>
<use x="160" y="3280" href="#r1"/>
<use x="120" y="3600" href="#r1"/>
<use x="200" y="3520" href="#r1"/>
<use x="120" y="3640" href="#r1"/>
<use x="120" y="3920" href="#r1"/>
<use x="120" y="3720" href="#r1"/>
<use x="160" y="3320" href="#r1"/>
<use x="160" y="3360" href="#r1"/>
<use x="320" y="400" href="#r1"/>
<use x="280" y="1120" href="#r1"/>
<use x="160" y="3400" href="#r1"/>
<use x="120" y="3760" href="#r1"/>
<use x="280" y="1320" href="#r1"/>
<use x="440" y="120" href="#r1"/>
<use x="400" y="120" href="#r1"/>
<use x="200" y="3560" href="#r1"/>
<use x="120" y="3800" href="#r1"/>
<use x="200" y="3600" href="#r1"/>
<use x="280" y="1440" href="#r1"/>
<use x="320" y="600" href="#r1"/>
<use x="200" y="3800" href="#r1"/>
<use x="240" y="3880" href="#r1"/>
<use x="160" y="3440" href="#r1"/>
<use x="360" y="240" href="#r1"/>
<use x="160" y="3480" href="#r1"/>
<use x="360" y="160" href="#r1"/>
<use x="320" y="760" href="#r1"/>
<use x="280" y="1600" href="#r1"/>
<use x="40" y="3680" href="#r1"/>
<use x="40" y="3720" href="#r1"/>
<use x="400" y="520" href="#r1"/>
<use x="80" y="3720" href="#r1"/>
<use x="320" y="840" href="#r1"/>
<use x="80" y="240" href="#r1"/>
<use x="40" y="3760" href="#r1"/>
<use x="320" y="880" href="#r1"/>
<use x="160" y="3520" href="#r1"/>
<use x="240" y="3680" href="#r1"/>
<use x="40" y="3800" href="#r1"/>
<use x="120" y="3960" href="#r1"/>
<use x="80" y="480" href="#r1"/>
<use x="160" y="3560" href="#r1"/>
<use x="120" y="3680" href="#r1"/>
<use x="200" y="3680" href="#r1"/>
<use x="280" y="1760" href="#r1"/>
<use x="160" y="3600" href="#r1"/>
<use x="40" y="280" href="#r1"/>
<use x="200" y="3880" href="#r1"/>
<use x="120" y="3880" href="#r1"/>
<use x="280" y="1840" href="#r1"/>
<use x="40" y="3880" href="#r1"/>
<use x="280" y="1920" href="#r1"/>
<use x="200" y="3720" href="#r1"/>
<use x="160" y="3640" href="#r1"/>
<use x="280" y="2160" href="#r1"/>
<use x="400" y="320" href="#r1"/>
<use x="240" y="3840" href="#r1"/>
<use x="400" y="240" href="#r1"/>
<use x="400" y="440" href="#r1"/>
<use x="280" y="2200" href="#r1"/>
<use x="280" y="2240" href="#r1"/>
<use x="160" y="3680" href="#r1"/>
<use x="160" y="3720" href="#r1"/>
<use x="160" y="3800" href="#r1"/>
<use x="280" y="2400" href="#r1"/>
<use x="200" y="3640" href="#r1"/>
<use x="80" y="560" href="#r1"/>
<use x="160" y="120" href="#r1"/>
<use x="320" y="1360" href="#r1"/>
<use x="240" y="3800" href="#r1"/>
<use x="120" y="3840" href="#r1"/>
<use x="40" y="400" href="#r1"/>
<use x="200" y="160" href="#r1"/>
<use x="120" y="360" href="#r1"/>
<use x="240" y="3760" href="#r1"/>
<use x="240" y="1200" href="#r1"/>
<use x="40" y="760" href="#r1"/>
<use x="320" y="1760" href="#r1"/>
<use x="360" y="80" href="#r1"/>
<use x="160" y="3840" href="#r1"/>
<use x="160" y="240" href="#r1"/>
<use x="320" y="1560" href="#r1"/>
<use x="200" y="3840" href="#r1"/>
<use x="160" y="320" href="#r1"/>
<use x="320" y="1520" href="#r1"/>
<use x="320" y="240" href="#r1"/>
<use x="280" y="2720" href="#r1"/>
<use x="200" y="400" href="#r1"/>
<use x="80" y="1840" href="#r1"/>
<use x="200" y="2920" href="#r1"/>
<use x="520" y="160" href="#r1"/>
<use x="160" y="3960" href="#r1"/>
<use x="320" y="1680" href="#r1"/>
<use x="160" y="2160" href="#r1"/>
<use x="40" y="2440" href="#r1"/>
<use x="600" y="240" href="#r1"/>
<use x="120" y="80" href="#r1"/>
<use x="280" y="240" href="#r1"/>
<use x="280" y="2760" href="#r1"/>
<use x="120" y="160" href="#r1"/>
<use x="280" y="280" href="#r1"/>
<use x="200" y="200" href="#r1"/>
<use x="120" y="240" href="#r1"/>
<use x="120" y="120" href="#r1"/>
<use x="200" y="280" href="#r1"/>
<use x="160" y="80" href="#r1"/>
<use x="160" y="3760" href="#r1"/>
<use x="240" y="160" href="#r1"/>
<use x="360" y="360" href="#r1"/>
<use x="160" y="3920" href="#r1"/>
<use x="160" y="280" href="#r1"/>
<use x="280" y="600" href="#r1"/>
<use x="200" y="80" href="#r1"/>
<use x="160" y="40" href="#r1"/>
<use x="160" y="200" href="#r1"/>
<use x="200" y="120" href="#r1"/>
<use x="200" y="320" href="#r1"/>
<use x="200" y="240" href="#r1"/>
<use x="200" y="3760" href="#r1"/>
<use x="200" y="440" href="#r1"/>
<use x="200" y="360" href="#r1"/>
<use x="200" y="3920" href="#r1"/>
<use x="240" y="240" href="#r1"/>
<use x="200" y="480" href="#r1"/>
<use x="200" y="520" href="#r1"/>
<use x="120" y="4000" href="#r1"/>
<use x="200" y="560" href="#r1"/>
<use x="240" y="200" href="#r1"/>
<use x="200" y="600" href="#r1"/>
<use x="200" y="640" href="#r1"/>
<use x="240" y="40" href="#r1"/>
<use x="200" y="680" href="#r1"/>
<use x="200" y="720" href="#r1"/>
<use x="200" y="760" href="#r1"/>
<use x="200" y="800" href="#r1"/>
<use x="200" y="880" href="#r1"/>
<use x="280" y="1080" href="#r1"/>
<use x="200" y="920" href="#r1"/>
<use x="200" y="960" href="#r1"/>
<use x="240" y="120" href="#r1"/>
<use x="200" y="1000" href="#r1"/>
<use x="320" y="480" href="#r1"/>
<use x="240" y="80" href="#r1"/>
<use x="160" y="440" href="#r1"/>
<use x="200" y="1040" href="#r1"/>
<use x="200" y="1080" href="#r1"/>
<use x="240" y="280" href="#r1"/>
<use x="40" y="840" href="#r1"/>
<use x="200" y="1120" href="#r1"/>
<use x="40" y="920" href="#r1"/>
<use x="40" y="960" href="#r1"/>
<use x="320" y="680" href="#r1"/>
<use x="200" y="1160" href="#r1"/>
<use x="120" y="520" href="#r1"/>
<use x="200" y="1200" href="#r1"/>
<use x="40" y="1240" href="#r1"/>
<use x="240" y="320" href="#r1"/>
<use x="200" y="1240" href="#r1"/>
<use x="200" y="1280" href="#r1"/>
<use x="200" y="1320" href="#r1"/>
<use x="200" y="1360" href="#r1"/>
<use x="240" y="360" href="#r1"/>
<use x="200" y="1400" href="#r1"/>
<use x="200" y="1440" href="#r1"/>
<use x="240" y="400" href="#r1"/>
<use x="240" y="440" href="#r1"/>
<use x="240" y="480" href="#r1"/>
<use x="200" y="1480" href="#r1"/>
<use x="240" y="520" href="#r1"/>
<use x="200" y="1520" href="#r1"/>
<use x="240" y="560" href="#r1"/>
<use x="200" y="1560" href="#r1"/>
<use x="200" y="1600" href="#r1"/>
<use x="200" y="1640" href="#r1"/>
<use x="240" y="600" href="#r1"/>
<use x="200" y="1720" href="#r1"/>
<use x="200" y="1760" href="#r1"/>
<use x="200" y="1800" href="#r1"/>
<use x="240" y="640" href="#r1"/>
<use x="200" y="1840" href="#r1"/>
<use x="200" y="1880" href="#r1"/>
<use x="200" y="1920" href="#r1"/>
<use x="200" y="1960" href="#r1"/>
<use x="240" y="680" href="#r1"/>
<use x="200" y="2000" href="#r1"/>
<use x="200" y="2040" href="#r1"/>
<use x="200" y="2080" href="#r1"/>
<use x="200" y="2120" href="#r1"/>
<use x="40" y="1720" href="#r1"/>
<use x="200" y="2160" href="#r1"/>
<use x="200" y="2200" href="#r1"/>
<use x="40" y="1840" href="#r1"/>
<use x="200" y="2240" href="#r1"/>
<use x="240" y="720" href="#r1"/>
<use x="240" y="800" href="#r1"/>
<use x="200" y="2280" href="#r1"/>
<use x="200" y="2320" href="#r1"/>
<use x="240" y="840" href="#r1"/>
<use x="200" y="2400" href="#r1"/>
<use x="240" y="920" href="#r1"/>
<use x="280" y="2440" href="#r1"/>
<use x="200" y="2440" href="#r1"/>
<use x="200" y="2480" href="#r1"/>
<use x="240" y="960" href="#r1"/>
<use x="280" y="2840" href="#r1"/>
<use x="200" y="2520" href="#r1"/>
<use x="200" y="2560" href="#r1"/>
<use x="240" y="1040" href="#r1"/>
<use x="240" y="1080" href="#r1"/>
<use x="40" y="1920" href="#r1"/>
<use x="200" y="2600" href="#r1"/>
<use x="200" y="2640" href="#r1"/>
<use x="160" y="800" href="#r1"/>
<use x="320" y="1720" href="#r1"/>
<use x="240" y="1120" href="#r1"/>
<use x="280" y="2520" href="#r1"/>
<use x="240" y="1160" href="#r1"/>
<use x="200" y="2680" href="#r1"/>
<use x="280" y="2560" href="#r1"/>
<use x="160" y="880" href="#r1"/>
<use x="200" y="2720" href="#r1"/>
<use x="160" y="920" href="#r1"/>
<use x="160" y="960" href="#r1"/>
<use x="280" y="320" href="#r1"/>
<use x="120" y="920" href="#r1"/>
<use x="280" y="400" href="#r1"/>
<use x="240" y="3960" href="#r1"/>
<use x="240" y="1240" href="#r1"/>
<use x="520" y="120" href="#r1"/>
<use x="440" y="320" href="#r1"/>
<use x="320" y="80" href="#r1"/>
<use x="400" y="360" href="#r1"/>
<use x="360" y="320" href="#r1"/>
<use x="360" y="280" href="#r1"/>
<use x="320" y="1800" href="#r1"/>
<use x="480" y="280" href="#r1"/>
<use x="440" y="160" href="#r1"/>
<use x="280" y="560" href="#r1"/>
<use x="240" y="1320" href="#r1"/>
<use x="360" y="400" href="#r1"/>
<use x="440" y="280" href="#r1"/>
<use x="200" y="2800" href="#r1"/>
<use x="280" y="680" href="#r1"/>
<use x="240" y="1360" href="#r1"/>
<use x="240" y="1400" href="#r1"/>
<use x="240" y="1440" href="#r1"/>
<use x="120" y="1200" href="#r1"/>
<use x="240" y="1480" href="#r1"/>
<use x="240" y="1520" href="#r1"/>
<use x="240" y="1560" href="#r1"/>
<use x="240" y="1600" href="#r1"/>
<use x="240" y="1640" href="#r1"/>
<use x="240" y="1680" href="#r1"/>
<use x="240" y="1720" href="#r1"/>
<use x="280" y="840" href="#r1"/>
<use x="240" y="1800" href="#r1"/>
<use x="120" y="1400" href="#r1"/>
<use x="280" y="960" href="#r1"/>
<use x="120" y="1440" href="#r1"/>
<use x="320" y="360" href="#r1"/>
<use x="280" y="1040" href="#r1"/>
<use x="240" y="1920" href="#r1"/>
<use x="240" y="2040" href="#r1"/>
<use x="240" y="2000" href="#r1"/>
<use x="240" y="2320" href="#r1"/>
<use x="240" y="2360" href="#r1"/>
<use x="240" y="2120" href="#r1"/>
<use x="240" y="2160" href="#r1"/>
<use x="280" y="1240" href="#r1"/>
<use x="280" y="1280" href="#r1"/>
<use x="240" y="2280" href="#r1"/>
<use x="160" y="1200" href="#r1"/>
<use x="280" y="1360" href="#r1"/>
<use x="400" y="40" href="#r1"/>
<use x="400" y="280" href="#r1"/>
<use x="320" y="640" href="#r1"/>
<use x="160" y="1240" href="#r1"/>
<use x="240" y="2440" href="#r1"/>
<use x="160" y="1280" href="#r1"/>
<use x="240" y="2480" href="#r1"/>
<use x="40" y="2760" href="#r1"/>
<use x="320" y="720" href="#r1"/>
<use x="80" y="1560" href="#r1"/>
<use x="280" y="1560" href="#r1"/>
<use x="320" y="800" href="#r1"/>
<use x="280" y="1640" href="#r1"/>
<use x="200" y="2840" href="#r1"/>
<use x="280" y="1680" href="#r1"/>
<use x="240" y="2520" href="#r1"/>
<use x="240" y="2560" href="#r1"/>
<use x="240" y="2600" href="#r1"/>
<use x="240" y="2640" href="#r1"/>
<use x="320" y="920" href="#r1"/>
<use x="360" y="40" href="#r1"/>
<use x="320" y="960" href="#r1"/>
<use x="40" y="2960" href="#r1"/>
<use x="320" y="1000" href="#r1"/>
<use x="320" y="1040" href="#r1"/>
<use x="320" y="1080" href="#r1"/>
<use x="240" y="2680" href="#r1"/>
<use x="80" y="4000" href="#r1"/>
<use x="240" y="2720" href="#r1"/>
<use x="40" y="3080" href="#r1"/>
<use x="40" y="3120" href="#r1"/>
<use x="200" y="2880" href="#r1"/>
<use x="240" y="2760" href="#r1"/>
<use x="240" y="2800" href="#r1"/>
<use x="280" y="1880" href="#r1"/>
<use x="240" y="2840" href="#r1"/>
<use x="240" y="2880" href="#r1"/>
<use x="240" y="2920" href="#r1"/>
<use x="240" y="2960" href="#r1"/>
<use x="80" y="2000" href="#r1"/>
<use x="240" y="3000" href="#r1"/>
<use x="40" y="3200" href="#r1"/>
<use x="40" y="3240" href="#r1"/>
<use x="80" y="2080" href="#r1"/>
<use x="240" y="3040" href="#r1"/>
<use x="80" y="2160" href="#r1"/>
<use x="240" y="3080" href="#r1"/>
<use x="80" y="2200" href="#r1"/>
<use x="80" y="2240" href="#r1"/>
<use x="120" y="1720" href="#r1"/>
<use x="80" y="2280" href="#r1"/>
<use x="320" y="1400" href="#r1"/>
<use x="320" y="1440" href="#r1"/>
<use x="240" y="3160" href="#r1"/>
<use x="320" y="1480" href="#r1"/>
<use x="320" y="1840" href="#r1"/>
<use x="400" y="80" href="#r1"/>
<use x="280" y="2800" href="#r1"/>
<use x="40" y="3320" href="#r1"/>
<use x="400" y="160" href="#r1"/>
<use x="160" y="1800" href="#r1"/>
<use x="440" y="360" href="#r1"/>
<use x="600" y="200" href="#r1"/>
<use x="0" y="400" href="#io"/>
<use x="240" y="4040" href="#io"/>
<use x="0" y="2000" href="#io"/>
<use x="520" y="0" href="#io"/>
<use x="440" y="0" href="#io"/>
<use x="320" y="0" href="#io"/>
<use x="400" y="0" href="#io"/>
<use x="360" y="0" href="#io"/>
<use x="360" y="0" href="#io"/>
<use x="0" y="1800" href="#io"/>
<use x="480" y="0" href="#io"/>
<use x="440" y="0" href="#io"/>
<use x="0" y="560" href="#io"/>
<use x="0" y="1320" href="#io"/>
<use x="0" y="400" href="#io"/>
<use x="440" y="0" href="#io"/>
<use x="0" y="1280" href="#io"/>
<use x="0" y="2280" href="#io"/>
<use x="0" y="1200" href="#io"/>
<use x="0" y="1360" href="#io"/>
<use x="0" y="2480" href="#io"/>
<use x="0" y="1000" href="#io"/>
<use x="0" y="400" href="#io"/>
<use x="160" y="0" href="#io"/>
<use x="200" y="0" href="#io"/>
<use x="0" y="2960" href="#io"/>
<use x="160" y="4040" href="#io"/>
<use x="360" y="0" href="#io"/>
<use x="0" y="1800" href="#io"/>
<use x="0" y="1640" href="#io"/>
<use x="600" y="0" href="#io"/>
<use x="600" y="0" href="#io"/>
<use x="520" y="0" href="#io"/>
<use x="520" y="0" href="#io"/>
<use x="0" y="1840" href="#io"/>
<use x="0" y="1080" href="#io"/>
<use x="400" y="0" href="#io"/>
<use x="0" y="2120" href="#io"/>
<use x="0" y="480" href="#io"/>
<use x="0" y="1240" href="#io"/>
<use x="0" y="2040" href="#io"/>
<use x="0" y="2240" href="#io"/>
<use x="600" y="0" href="#io"/>
<use x="440" y="0" href="#io"/>
<use x="440" y="0" href="#io"/>
<use x="440" y="0" href="#io"/>
<use x="440" y="0" href="#io"/>
<use x="440" y="0" href="#io"/>
<use x="600" y="0" href="#io"/>
<use x="600" y="0" href="#io"/>
<use x="600" y="0" href="#io"/>
<use x="600" y="0" href="#io"/>
<use x="600" y="0" href="#io"/>
<use x="600" y="0" href="#io"/>
<use x="0" y="1440" href="#io"/>
<use x="0" y="3120" href="#io"/>
<use x="0" y="2880" href="#io"/>
<use x="0" y="2760" href="#io"/>
<use x="0" y="2800" href="#io"/>
<use x="0" y="1880" href="#io"/>
<use x="0" y="2840" href="#io"/>
<use x="0" y="2880" href="#io"/>
<use x="0" y="2920" href="#io"/>
<use x="0" y="2960" href="#io"/>
<use x="0" y="2000" href="#io"/>
<use x="0" y="1080" href="#io"/>
<use x="0" y="520" href="#io"/>
<use x="120" y="4040" href="#io"/>
<use x="0" y="760" href="#io"/>
<use x="0" y="1240" href="#io"/>
<use x="400" y="0" href="#io"/>
<use x="0" y="2360" href="#io"/>
<use x="0" y="1800" href="#io"/>
<use x="0" y="2360" href="#io"/>
<use x="0" y="760" href="#io"/>
<use x="0" y="680" href="#io"/>
<use x="0" y="3000" href="#io"/>
<use x="0" y="640" href="#io"/>
<use x="160" y="4040" href="#io"/>
<use x="0" y="280" href="#io"/>
<use x="360" y="0" href="#io"/>
<line x1="20" y1="420" x2="300" y2="420"/>
<line x1="260" y1="4060" x2="260" y2="3980"/>
<line x1="20" y1="2020" x2="260" y2="2020"/>
<line x1="540" y1="20" x2="540" y2="140"/>
<line x1="460" y1="20" x2="460" y2="340"/>
<line x1="340" y1="20" x2="340" y2="100"/>
<line x1="420" y1="20" x2="420" y2="380"/>
<line x1="380" y1="20" x2="380" y2="340"/>
<line x1="380" y1="20" x2="380" y2="300"/>
<line x1="20" y1="1820" x2="340" y2="1820"/>
<line x1="500" y1="20" x2="500" y2="300"/>
<line x1="460" y1="20" x2="460" y2="180"/>
<line x1="20" y1="580" x2="300" y2="580"/>
<line x1="20" y1="1340" x2="260" y2="1340"/>
<line x1="20" y1="420" x2="380" y2="420"/>
<line x1="460" y1="20" x2="460" y2="300"/>
<line x1="20" y1="1300" x2="300" y2="1300"/>
<line x1="20" y1="2300" x2="260" y2="2300"/>
<line x1="20" y1="1220" x2="180" y2="1220"/>
<line x1="20" y1="1380" x2="300" y2="1380"/>
<line x1="20" y1="2500" x2="260" y2="2500"/>
<line x1="20" y1="1020" x2="340" y2="1020"/>
<line x1="20" y1="420" x2="220" y2="420"/>
<line x1="180" y1="20" x2="180" y2="60"/>
<line x1="220" y1="20" x2="220" y2="100"/>
<line x1="20" y1="2980" x2="60" y2="2980"/>
<line x1="180" y1="4060" x2="180" y2="3940"/>
<line x1="380" y1="20" x2="380" y2="380"/>
<line x1="20" y1="1820" x2="180" y2="1820"/>
<line x1="20" y1="1660" x2="300" y2="1660"/>
<line x1="620" y1="20" x2="620" y2="260"/>
<line x1="620" y1="20" x2="620" y2="260"/>
<line x1="540" y1="20" x2="540" y2="180"/>
<line x1="540" y1="20" x2="540" y2="180"/>
<line x1="20" y1="1860" x2="300" y2="1860"/>
<line x1="20" y1="1100" x2="180" y2="1100"/>
<line x1="420" y1="20" x2="420" y2="420"/>
<line x1="20" y1="2140" x2="300" y2="2140"/>
<line x1="20" y1="500" x2="380" y2="500"/>
<line x1="20" y1="1260" x2="340" y2="1260"/>
<line x1="20" y1="2060" x2="300" y2="2060"/>
<line x1="20" y1="2260" x2="180" y2="2260"/>
<line x1="620" y1="20" x2="620" y2="220"/>
<line x1="460" y1="20" x2="460" y2="380"/>
<line x1="460" y1="20" x2="460" y2="380"/>
<line x1="460" y1="20" x2="460" y2="380"/>
<line x1="460" y1="20" x2="460" y2="380"/>
<line x1="460" y1="20" x2="460" y2="380"/>
<line x1="620" y1="20" x2="620" y2="220"/>
<line x1="620" y1="20" x2="620" y2="220"/>
<line x1="620" y1="20" x2="620" y2="220"/>
<line x1="620" y1="20" x2="620" y2="220"/>
<line x1="620" y1="20" x2="620" y2="220"/>
<line x1="620" y1="20" x2="620" y2="220"/>
<line x1="20" y1="1460" x2="140" y2="1460"/>
<line x1="20" y1="3140" x2="60" y2="3140"/>
<line x1="20" y1="2900" x2="220" y2="2900"/>
<line x1="20" y1="2780" x2="260" y2="2780"/>
<line x1="20" y1="2820" x2="260" y2="2820"/>
<line x1="20" y1="1900" x2="300" y2="1900"/>
<line x1="20" y1="2860" x2="260" y2="2860"/>
<line x1="20" y1="2900" x2="260" y2="2900"/>
<line x1="20" y1="2940" x2="260" y2="2940"/>
<line x1="20" y1="2980" x2="260" y2="2980"/>
<line x1="20" y1="2020" x2="100" y2="2020"/>
<line x1="20" y1="1100" x2="140" y2="1100"/>
<line x1="20" y1="540" x2="180" y2="540"/>
<line x1="140" y1="4060" x2="140" y2="3900"/>
<line x1="20" y1="780" x2="180" y2="780"/>
<line x1="20" y1="1260" x2="60" y2="1260"/>
<line x1="420" y1="20" x2="420" y2="180"/>
<line x1="20" y1="2380" x2="300" y2="2380"/>
<line x1="20" y1="1820" x2="60" y2="1820"/>
<line x1="20" y1="2380" x2="220" y2="2380"/>
<line x1="20" y1="780" x2="260" y2="780"/>
<line x1="20" y1="700" x2="180" y2="700"/>
<line x1="20" y1="3020" x2="260" y2="3020"/>
<line x1="20" y1="660" x2="180" y2="660"/>
<line x1="180" y1="4060" x2="180" y2="3900"/>
<line x1="20" y1="300" x2="140" y2="300"/>
<line x1="380" y1="20" x2="380" y2="180"/>
</svg>
