<svg viewBox="0 0 2080 2080" xmlns="http://www.w3.org/2000/svg">
  <style type="text/css">
    @import "mysvg.css"
  </style>

  <!-- Create mask that we'll use to define a slight gradient -->
  <mask maskUnits="userSpaceOnUse" id="fade">
    <!-- Here's that slight gradient -->
    <linearGradient id="gradient" x1="0" y1="0" x2="0" y2="100%">
      <stop offset ="0" style="stop-color: #FFFFFF" />
      <stop offset ="1" style="stop-color: #000000" />
    </linearGradient>
    <!-- The canvas for our mask -->
    <rect fill="url(#gradient)" width="100%" height="100%" />
  </mask>
    
  <!-- Let's define the pattern -->
  <!-- The width and height should be double the circle radius we plan to use -->
  <pattern id="pattern-circles" x="0" y="0" width="40" height="40" patternUnits="userSpaceOnUse">
    <!-- Now let's draw the circle -->
    <!-- We're going to define the `fill` in the CSS for flexible use -->
    <circle class="cell" opacity="0.2" cx="20" cy="20" r="15" />
  </pattern>

  <!-- Let's define the pattern -->
  <!-- The width and height should be double the circle radius we plan to use -->
  <pattern id="pattern-io" x="0" y="0" width="40" height="40" patternUnits="userSpaceOnUse">
    <!-- Now let's draw the circle -->
    <!-- We're going to define the `fill` in the CSS for flexible use -->
    <circle class="iopad" opacity="0.2" cx="20" cy="20" r="15" />
  </pattern>

  <!-- The canvas with our applied pattern -->
  <rect x="40" y="40" width="2000" height="2000" fill="url(#pattern-circles)" />
  <rect x="40" y="0" width="2000" height="40" fill="url(#pattern-io)" />
  <rect x="40" y="2040" width="2000" height="40" fill="url(#pattern-io)" />
  <rect x="0" y="40" width="40" height="2000" fill="url(#pattern-io)" />
  <rect x="2040" y="40" width="40" height="2000" fill="url(#pattern-io)" />
  <defs>
    <!-- A circle of radius 200 -->
    <circle id = "s1" cx = "200" cy = "200" r = "200" fill = "yellow" stroke = "black" stroke-width = "3"/>
    <!-- An ellipse (rx=200,ry=150) -->
    <ellipse id = "s2" cx = "200" cy = "150" rx = "200" ry = "150" fill = "salmon" stroke = "black" stroke-width = "3"/>
    <rect id = "r1" width="35" height="35" fill = "#FF00A7" opacity="0.2" stroke = "black" stroke-width = "3"/>
    <rect id = "io" width="35" height="35" fill = "#00E7FF" opacity="0.2" stroke = "black" stroke-width = "3"/>
  </defs>
<use x="1880" y="1640" href="#r1"/>
<use x="1920" y="2000" href="#r1"/>
<use x="2000" y="1880" href="#r1"/>
<use x="1680" y="1560" href="#r1"/>
<use x="1760" y="1560" href="#r1"/>
<use x="2000" y="1640" href="#r1"/>
<use x="1480" y="1600" href="#r1"/>
<use x="1760" y="1480" href="#r1"/>
<use x="1840" y="2000" href="#r1"/>
<use x="1480" y="1760" href="#r1"/>
<use x="1480" y="1960" href="#r1"/>
<use x="1440" y="1800" href="#r1"/>
<use x="1560" y="1840" href="#r1"/>
<use x="2000" y="2000" href="#r1"/>
<use x="1600" y="1800" href="#r1"/>
<use x="960" y="1920" href="#r1"/>
<use x="1560" y="1560" href="#r1"/>
<use x="1640" y="1760" href="#r1"/>
<use x="1320" y="1640" href="#r1"/>
<use x="1360" y="1600" href="#r1"/>
<use x="1400" y="1680" href="#r1"/>
<use x="1200" y="2000" href="#r1"/>
<use x="1840" y="1840" href="#r1"/>
<use x="960" y="1880" href="#r1"/>
<use x="1440" y="1960" href="#r1"/>
<use x="1640" y="1600" href="#r1"/>
<use x="1600" y="1840" href="#r1"/>
<use x="1240" y="1840" href="#r1"/>
<use x="1360" y="1920" href="#r1"/>
<use x="1680" y="1720" href="#r1"/>
<use x="1160" y="1520" href="#r1"/>
<use x="1400" y="1560" href="#r1"/>
<use x="1440" y="1360" href="#r1"/>
<use x="1560" y="1520" href="#r1"/>
<use x="1160" y="1640" href="#r1"/>
<use x="800" y="1680" href="#r1"/>
<use x="1960" y="1720" href="#r1"/>
<use x="1880" y="2000" href="#r1"/>
<use x="1800" y="2000" href="#r1"/>
<use x="1840" y="1920" href="#r1"/>
<use x="1360" y="1960" href="#r1"/>
<use x="1560" y="1800" href="#r1"/>
<use x="1320" y="1960" href="#r1"/>
<use x="1400" y="2000" href="#r1"/>
<use x="1120" y="2000" href="#r1"/>
<use x="1560" y="2000" href="#r1"/>
<use x="1720" y="1480" href="#r1"/>
<use x="1720" y="1640" href="#r1"/>
<use x="1080" y="1920" href="#r1"/>
<use x="1160" y="2000" href="#r1"/>
<use x="1520" y="2000" href="#r1"/>
<use x="1600" y="2000" href="#r1"/>
<use x="1360" y="1880" href="#r1"/>
<use x="1240" y="2000" href="#r1"/>
<use x="1640" y="2000" href="#r1"/>
<use x="1840" y="1960" href="#r1"/>
<use x="1480" y="2000" href="#r1"/>
<use x="1280" y="2000" href="#r1"/>
<use x="1280" y="1960" href="#r1"/>
<use x="1160" y="1920" href="#r1"/>
<use x="1440" y="2000" href="#r1"/>
<use x="1640" y="1960" href="#r1"/>
<use x="1960" y="1840" href="#r1"/>
<use x="1280" y="1880" href="#r1"/>
<use x="1520" y="1640" href="#r1"/>
<use x="1360" y="2000" href="#r1"/>
<use x="1240" y="1960" href="#r1"/>
<use x="1000" y="1920" href="#r1"/>
<use x="1480" y="1880" href="#r1"/>
<use x="880" y="1800" href="#r1"/>
<use x="1200" y="1960" href="#r1"/>
<use x="1320" y="2000" href="#r1"/>
<use x="1000" y="1840" href="#r1"/>
<use x="1600" y="1960" href="#r1"/>
<use x="640" y="1880" href="#r1"/>
<use x="1680" y="2000" href="#r1"/>
<use x="880" y="1920" href="#r1"/>
<use x="1240" y="1480" href="#r1"/>
<use x="1400" y="1840" href="#r1"/>
<use x="1640" y="1520" href="#r1"/>
<use x="1680" y="1400" href="#r1"/>
<use x="1720" y="1400" href="#r1"/>
<use x="1200" y="1840" href="#r1"/>
<use x="1160" y="1800" href="#r1"/>
<use x="1080" y="2000" href="#r1"/>
<use x="680" y="1880" href="#r1"/>
<use x="1040" y="1600" href="#r1"/>
<use x="1360" y="1720" href="#r1"/>
<use x="1720" y="1280" href="#r1"/>
<use x="1040" y="1560" href="#r1"/>
<use x="760" y="1480" href="#r1"/>
<use x="1520" y="1120" href="#r1"/>
<use x="1760" y="1280" href="#r1"/>
<use x="1040" y="1840" href="#r1"/>
<use x="1840" y="1320" href="#r1"/>
<use x="520" y="1240" href="#r1"/>
<use x="1920" y="1720" href="#r1"/>
<use x="1840" y="1400" href="#r1"/>
<use x="1920" y="1400" href="#r1"/>
<use x="1120" y="1120" href="#r1"/>
<use x="1680" y="1680" href="#r1"/>
<use x="1840" y="1360" href="#r1"/>
<use x="1160" y="1480" href="#r1"/>
<use x="1040" y="1120" href="#r1"/>
<use x="1760" y="1440" href="#r1"/>
<use x="840" y="1840" href="#r1"/>
<use x="920" y="1800" href="#r1"/>
<use x="1880" y="1560" href="#r1"/>
<use x="720" y="1720" href="#r1"/>
<use x="680" y="1720" href="#r1"/>
<use x="1080" y="1960" href="#r1"/>
<use x="1680" y="1960" href="#r1"/>
<use x="680" y="1760" href="#r1"/>
<use x="920" y="1920" href="#r1"/>
<use x="840" y="1640" href="#r1"/>
<use x="920" y="1320" href="#r1"/>
<use x="680" y="1440" href="#r1"/>
<use x="1120" y="1960" href="#r1"/>
<use x="1080" y="1880" href="#r1"/>
<use x="600" y="1840" href="#r1"/>
<use x="600" y="1800" href="#r1"/>
<use x="1920" y="1560" href="#r1"/>
<use x="1080" y="1720" href="#r1"/>
<use x="1760" y="1600" href="#r1"/>
<use x="880" y="1840" href="#r1"/>
<use x="760" y="1720" href="#r1"/>
<use x="1080" y="1800" href="#r1"/>
<use x="520" y="1800" href="#r1"/>
<use x="1600" y="1600" href="#r1"/>
<use x="1640" y="1680" href="#r1"/>
<use x="1320" y="1440" href="#r1"/>
<use x="1000" y="1880" href="#r1"/>
<use x="680" y="1840" href="#r1"/>
<use x="1080" y="1520" href="#r1"/>
<use x="1400" y="1960" href="#r1"/>
<use x="1320" y="1600" href="#r1"/>
<use x="1280" y="1560" href="#r1"/>
<use x="1240" y="1560" href="#r1"/>
<use x="1200" y="1920" href="#r1"/>
<use x="1640" y="1440" href="#r1"/>
<use x="1520" y="1560" href="#r1"/>
<use x="1000" y="1520" href="#r1"/>
<use x="1160" y="1960" href="#r1"/>
<use x="1320" y="1880" href="#r1"/>
<use x="1120" y="1600" href="#r1"/>
<use x="320" y="1720" href="#r1"/>
<use x="640" y="1840" href="#r1"/>
<use x="1320" y="1560" href="#r1"/>
<use x="1280" y="1920" href="#r1"/>
<use x="1880" y="1880" href="#r1"/>
<use x="1360" y="1440" href="#r1"/>
<use x="1280" y="1520" href="#r1"/>
<use x="1560" y="1640" href="#r1"/>
<use x="1320" y="1680" href="#r1"/>
<use x="1280" y="1680" href="#r1"/>
<use x="1520" y="1440" href="#r1"/>
<use x="1360" y="1520" href="#r1"/>
<use x="1680" y="1800" href="#r1"/>
<use x="1480" y="1800" href="#r1"/>
<use x="1360" y="1760" href="#r1"/>
<use x="1160" y="1600" href="#r1"/>
<use x="1520" y="1960" href="#r1"/>
<use x="2000" y="1920" href="#r1"/>
<use x="2000" y="1960" href="#r1"/>
<use x="1960" y="2000" href="#r1"/>
<use x="1960" y="1920" href="#r1"/>
<use x="1920" y="1920" href="#r1"/>
<use x="1600" y="1720" href="#r1"/>
<use x="1880" y="1920" href="#r1"/>
<use x="1800" y="1920" href="#r1"/>
<use x="1720" y="1920" href="#r1"/>
<use x="1960" y="1960" href="#r1"/>
<use x="1120" y="1920" href="#r1"/>
<use x="1200" y="1880" href="#r1"/>
<use x="1520" y="1840" href="#r1"/>
<use x="1920" y="1880" href="#r1"/>
<use x="1640" y="1920" href="#r1"/>
<use x="1800" y="1960" href="#r1"/>
<use x="1480" y="1840" href="#r1"/>
<use x="1760" y="2000" href="#r1"/>
<use x="1600" y="1920" href="#r1"/>
<use x="1760" y="1960" href="#r1"/>
<use x="1560" y="1920" href="#r1"/>
<use x="1520" y="1920" href="#r1"/>
<use x="1760" y="1680" href="#r1"/>
<use x="1760" y="1920" href="#r1"/>
<use x="1240" y="1920" href="#r1"/>
<use x="1600" y="1880" href="#r1"/>
<use x="1480" y="1920" href="#r1"/>
<use x="1440" y="1920" href="#r1"/>
<use x="1800" y="1680" href="#r1"/>
<use x="1880" y="1800" href="#r1"/>
<use x="1400" y="1920" href="#r1"/>
<use x="1800" y="1880" href="#r1"/>
<use x="1720" y="1880" href="#r1"/>
<use x="1680" y="1920" href="#r1"/>
<use x="1560" y="1680" href="#r1"/>
<use x="1520" y="1800" href="#r1"/>
<use x="1640" y="1880" href="#r1"/>
<use x="1720" y="2000" href="#r1"/>
<use x="800" y="1800" href="#r1"/>
<use x="1560" y="1960" href="#r1"/>
<use x="1400" y="1880" href="#r1"/>
<use x="1600" y="1640" href="#r1"/>
<use x="1960" y="1880" href="#r1"/>
<use x="1800" y="1840" href="#r1"/>
<use x="1160" y="1880" href="#r1"/>
<use x="1800" y="1720" href="#r1"/>
<use x="1120" y="1880" href="#r1"/>
<use x="1840" y="1720" href="#r1"/>
<use x="1880" y="1720" href="#r1"/>
<use x="1880" y="1760" href="#r1"/>
<use x="1920" y="1760" href="#r1"/>
<use x="1800" y="1760" href="#r1"/>
<use x="1920" y="1840" href="#r1"/>
<use x="1040" y="2000" href="#r1"/>
<use x="1600" y="1680" href="#r1"/>
<use x="1920" y="1440" href="#r1"/>
<use x="1680" y="1520" href="#r1"/>
<use x="1640" y="1640" href="#r1"/>
<use x="1440" y="1840" href="#r1"/>
<use x="920" y="1880" href="#r1"/>
<use x="1920" y="1520" href="#r1"/>
<use x="1680" y="1320" href="#r1"/>
<use x="1840" y="1560" href="#r1"/>
<use x="1760" y="1640" href="#r1"/>
<use x="560" y="1840" href="#r1"/>
<use x="960" y="1840" href="#r1"/>
<use x="1000" y="2000" href="#r1"/>
<use x="920" y="1840" href="#r1"/>
<use x="840" y="1880" href="#r1"/>
<use x="1720" y="1840" href="#r1"/>
<use x="1440" y="1880" href="#r1"/>
<use x="400" y="1720" href="#r1"/>
<use x="1680" y="1600" href="#r1"/>
<use x="2000" y="1800" href="#r1"/>
<use x="1920" y="1800" href="#r1"/>
<use x="1960" y="1800" href="#r1"/>
<use x="1560" y="1880" href="#r1"/>
<use x="1520" y="1880" href="#r1"/>
<use x="2000" y="1680" href="#r1"/>
<use x="1160" y="1840" href="#r1"/>
<use x="1640" y="1840" href="#r1"/>
<use x="2000" y="1840" href="#r1"/>
<use x="1000" y="1800" href="#r1"/>
<use x="1040" y="1880" href="#r1"/>
<use x="1840" y="1760" href="#r1"/>
<use x="1320" y="1840" href="#r1"/>
<use x="1840" y="1800" href="#r1"/>
<use x="1240" y="1880" href="#r1"/>
<use x="1880" y="1840" href="#r1"/>
<use x="1280" y="1840" href="#r1"/>
<use x="1760" y="1880" href="#r1"/>
<use x="1680" y="1880" href="#r1"/>
<use x="1040" y="1920" href="#r1"/>
<use x="1640" y="1800" href="#r1"/>
<use x="1320" y="1920" href="#r1"/>
<use x="1120" y="1840" href="#r1"/>
<use x="880" y="1880" href="#r1"/>
<use x="800" y="1880" href="#r1"/>
<use x="720" y="1880" href="#r1"/>
<use x="840" y="1920" href="#r1"/>
<use x="1800" y="1800" href="#r1"/>
<use x="1680" y="1840" href="#r1"/>
<use x="1760" y="1800" href="#r1"/>
<use x="1880" y="1960" href="#r1"/>
<use x="1360" y="1840" href="#r1"/>
<use x="1440" y="1440" href="#r1"/>
<use x="1560" y="1760" href="#r1"/>
<use x="1440" y="1520" href="#r1"/>
<use x="1720" y="1800" href="#r1"/>
<use x="1800" y="1240" href="#r1"/>
<use x="1720" y="1560" href="#r1"/>
<use x="1720" y="1440" href="#r1"/>
<use x="1680" y="1440" href="#r1"/>
<use x="760" y="1840" href="#r1"/>
<use x="1440" y="1760" href="#r1"/>
<use x="1360" y="1640" href="#r1"/>
<use x="1280" y="1480" href="#r1"/>
<use x="1720" y="1720" href="#r1"/>
<use x="1840" y="1880" href="#r1"/>
<use x="1520" y="1480" href="#r1"/>
<use x="1480" y="1720" href="#r1"/>
<use x="1920" y="1600" href="#r1"/>
<use x="1840" y="1640" href="#r1"/>
<use x="1760" y="1840" href="#r1"/>
<use x="1640" y="1280" href="#r1"/>
<use x="1600" y="1760" href="#r1"/>
<use x="1080" y="1840" href="#r1"/>
<use x="1200" y="1640" href="#r1"/>
<use x="1520" y="1360" href="#r1"/>
<use x="1640" y="1480" href="#r1"/>
<use x="1320" y="1320" href="#r1"/>
<use x="1520" y="1760" href="#r1"/>
<use x="1560" y="1400" href="#r1"/>
<use x="1400" y="1800" href="#r1"/>
<use x="1800" y="1560" href="#r1"/>
<use x="1520" y="1320" href="#r1"/>
<use x="1240" y="1600" href="#r1"/>
<use x="1600" y="1440" href="#r1"/>
<use x="720" y="1800" href="#r1"/>
<use x="1440" y="1240" href="#r1"/>
<use x="1760" y="1720" href="#r1"/>
<use x="1240" y="1640" href="#r1"/>
<use x="1280" y="1120" href="#r1"/>
<use x="720" y="1480" href="#r1"/>
<use x="1400" y="1480" href="#r1"/>
<use x="1440" y="1480" href="#r1"/>
<use x="1160" y="1720" href="#r1"/>
<use x="1360" y="1560" href="#r1"/>
<use x="1720" y="1600" href="#r1"/>
<use x="1400" y="1280" href="#r1"/>
<use x="1440" y="1560" href="#r1"/>
<use x="1080" y="1640" href="#r1"/>
<use x="1560" y="1440" href="#r1"/>
<use x="1560" y="1480" href="#r1"/>
<use x="1000" y="1640" href="#r1"/>
<use x="920" y="1680" href="#r1"/>
<use x="1000" y="1720" href="#r1"/>
<use x="1680" y="1480" href="#r1"/>
<use x="1600" y="1560" href="#r1"/>
<use x="960" y="1680" href="#r1"/>
<use x="960" y="1640" href="#r1"/>
<use x="920" y="1640" href="#r1"/>
<use x="1160" y="1680" href="#r1"/>
<use x="1480" y="1440" href="#r1"/>
<use x="1320" y="1480" href="#r1"/>
<use x="1400" y="1600" href="#r1"/>
<use x="1080" y="1400" href="#r1"/>
<use x="1480" y="1400" href="#r1"/>
<use x="1720" y="1680" href="#r1"/>
<use x="1400" y="1760" href="#r1"/>
<use x="1480" y="1680" href="#r1"/>
<use x="1520" y="1680" href="#r1"/>
<use x="1000" y="1600" href="#r1"/>
<use x="1680" y="1640" href="#r1"/>
<use x="1280" y="1800" href="#r1"/>
<use x="1240" y="1800" href="#r1"/>
<use x="720" y="1840" href="#r1"/>
<use x="1440" y="1680" href="#r1"/>
<use x="1120" y="1800" href="#r1"/>
<use x="880" y="1680" href="#r1"/>
<use x="760" y="1680" href="#r1"/>
<use x="560" y="1320" href="#r1"/>
<use x="1800" y="1400" href="#r1"/>
<use x="1800" y="1480" href="#r1"/>
<use x="1920" y="1480" href="#r1"/>
<use x="1240" y="1760" href="#r1"/>
<use x="1320" y="1800" href="#r1"/>
<use x="920" y="1760" href="#r1"/>
<use x="640" y="1800" href="#r1"/>
<use x="1040" y="1800" href="#r1"/>
<use x="800" y="1840" href="#r1"/>
<use x="1680" y="1760" href="#r1"/>
<use x="1560" y="1720" href="#r1"/>
<use x="600" y="1880" href="#r1"/>
<use x="760" y="1760" href="#r1"/>
<use x="760" y="1800" href="#r1"/>
<use x="760" y="1880" href="#r1"/>
<use x="720" y="1760" href="#r1"/>
<use x="1760" y="1760" href="#r1"/>
<use x="1640" y="1560" href="#r1"/>
<use x="680" y="1800" href="#r1"/>
<use x="920" y="1600" href="#r1"/>
<use x="1080" y="1480" href="#r1"/>
<use x="840" y="1800" href="#r1"/>
<use x="1880" y="1680" href="#r1"/>
<use x="960" y="1800" href="#r1"/>
<use x="1360" y="1800" href="#r1"/>
<use x="720" y="1680" href="#r1"/>
<use x="560" y="1720" href="#r1"/>
<use x="600" y="1720" href="#r1"/>
<use x="640" y="1760" href="#r1"/>
<use x="480" y="1800" href="#r1"/>
<use x="760" y="1360" href="#r1"/>
<use x="960" y="1480" href="#r1"/>
<use x="840" y="1600" href="#r1"/>
<use x="1160" y="1760" href="#r1"/>
<use x="1120" y="1760" href="#r1"/>
<use x="1040" y="1720" href="#r1"/>
<use x="560" y="1800" href="#r1"/>
<use x="520" y="1720" href="#r1"/>
<use x="1440" y="1640" href="#r1"/>
<use x="960" y="1720" href="#r1"/>
<use x="1200" y="1760" href="#r1"/>
<use x="1200" y="1440" href="#r1"/>
<use x="1120" y="1520" href="#r1"/>
<use x="1200" y="1360" href="#r1"/>
<use x="600" y="1760" href="#r1"/>
<use x="1280" y="1760" href="#r1"/>
<use x="1720" y="1760" href="#r1"/>
<use x="560" y="1760" href="#r1"/>
<use x="1080" y="1760" href="#r1"/>
<use x="1200" y="1680" href="#r1"/>
<use x="1120" y="1680" href="#r1"/>
<use x="1200" y="1560" href="#r1"/>
<use x="600" y="1480" href="#r1"/>
<use x="1240" y="1520" href="#r1"/>
<use x="1200" y="1480" href="#r1"/>
<use x="1040" y="1680" href="#r1"/>
<use x="1040" y="1520" href="#r1"/>
<use x="1000" y="1680" href="#r1"/>
<use x="1280" y="1720" href="#r1"/>
<use x="1280" y="1360" href="#r1"/>
<use x="1320" y="1760" href="#r1"/>
<use x="1080" y="1360" href="#r1"/>
<use x="720" y="1520" href="#r1"/>
<use x="1000" y="1480" href="#r1"/>
<use x="1240" y="1680" href="#r1"/>
<use x="1520" y="1720" href="#r1"/>
<use x="1400" y="1200" href="#r1"/>
<use x="1440" y="1720" href="#r1"/>
<use x="1400" y="1160" href="#r1"/>
<use x="440" y="1320" href="#r1"/>
<use x="1400" y="1320" href="#r1"/>
<use x="1160" y="1120" href="#r1"/>
<use x="1040" y="1640" href="#r1"/>
<use x="920" y="1280" href="#r1"/>
<use x="520" y="1400" href="#r1"/>
<use x="1200" y="1800" href="#r1"/>
<use x="920" y="1440" href="#r1"/>
<use x="440" y="1400" href="#r1"/>
<use x="360" y="1480" href="#r1"/>
<use x="840" y="1400" href="#r1"/>
<use x="1200" y="1520" href="#r1"/>
<use x="1320" y="1240" href="#r1"/>
<use x="1360" y="1320" href="#r1"/>
<use x="1120" y="1640" href="#r1"/>
<use x="880" y="1400" href="#r1"/>
<use x="1240" y="1160" href="#r1"/>
<use x="880" y="1160" href="#r1"/>
<use x="880" y="1440" href="#r1"/>
<use x="840" y="1520" href="#r1"/>
<use x="1040" y="1480" href="#r1"/>
<use x="440" y="1720" href="#r1"/>
<use x="1280" y="1400" href="#r1"/>
<use x="1120" y="1480" href="#r1"/>
<use x="1000" y="1760" href="#r1"/>
<use x="1240" y="1720" href="#r1"/>
<use x="1200" y="1720" href="#r1"/>
<use x="1200" y="1600" href="#r1"/>
<use x="1080" y="1320" href="#r1"/>
<use x="1480" y="1640" href="#r1"/>
<use x="1520" y="1600" href="#r1"/>
<use x="1480" y="1560" href="#r1"/>
<use x="1440" y="1400" href="#r1"/>
<use x="1240" y="1040" href="#r1"/>
<use x="1600" y="1480" href="#r1"/>
<use x="880" y="1480" href="#r1"/>
<use x="600" y="1360" href="#r1"/>
<use x="1080" y="1560" href="#r1"/>
<use x="1520" y="1520" href="#r1"/>
<use x="800" y="1440" href="#r1"/>
<use x="640" y="1440" href="#r1"/>
<use x="1560" y="1600" href="#r1"/>
<use x="1800" y="1360" href="#r1"/>
<use x="560" y="1360" href="#r1"/>
<use x="1320" y="1720" href="#r1"/>
<use x="1120" y="1720" href="#r1"/>
<use x="1280" y="1080" href="#r1"/>
<use x="1520" y="1400" href="#r1"/>
<use x="1200" y="1160" href="#r1"/>
<use x="1800" y="1520" href="#r1"/>
<use x="840" y="1360" href="#r1"/>
<use x="720" y="1320" href="#r1"/>
<use x="1640" y="1320" href="#r1"/>
<use x="1640" y="1400" href="#r1"/>
<use x="880" y="1640" href="#r1"/>
<use x="1600" y="1120" href="#r1"/>
<use x="1560" y="1160" href="#r1"/>
<use x="1600" y="1520" href="#r1"/>
<use x="1720" y="1320" href="#r1"/>
<use x="1880" y="1440" href="#r1"/>
<use x="1680" y="1160" href="#r1"/>
<use x="2000" y="1400" href="#r1"/>
<use x="1280" y="1240" href="#r1"/>
<use x="1840" y="1520" href="#r1"/>
<use x="1280" y="1200" href="#r1"/>
<use x="1840" y="1240" href="#r1"/>
<use x="1960" y="1480" href="#r1"/>
<use x="1960" y="1360" href="#r1"/>
<use x="1240" y="1200" href="#r1"/>
<use x="1960" y="1440" href="#r1"/>
<use x="2000" y="1720" href="#r1"/>
<use x="2000" y="1360" href="#r1"/>
<use x="1760" y="1360" href="#r1"/>
<use x="1800" y="1320" href="#r1"/>
<use x="1800" y="1280" href="#r1"/>
<use x="2000" y="1480" href="#r1"/>
<use x="1480" y="1160" href="#r1"/>
<use x="1880" y="1480" href="#r1"/>
<use x="1920" y="1360" href="#r1"/>
<use x="1000" y="1360" href="#r1"/>
<use x="840" y="1680" href="#r1"/>
<use x="1760" y="1520" href="#r1"/>
<use x="1960" y="1400" href="#r1"/>
<use x="1920" y="1680" href="#r1"/>
<use x="1960" y="1680" href="#r1"/>
<use x="1640" y="1720" href="#r1"/>
<use x="1840" y="1680" href="#r1"/>
<use x="1800" y="1640" href="#r1"/>
<use x="1880" y="1320" href="#r1"/>
<use x="1600" y="1200" href="#r1"/>
<use x="640" y="1480" href="#r1"/>
<use x="680" y="1680" href="#r1"/>
<use x="1080" y="1080" href="#r1"/>
<use x="680" y="1560" href="#r1"/>
<use x="960" y="1120" href="#r1"/>
<use x="920" y="1400" href="#r1"/>
<use x="1680" y="1280" href="#r1"/>
<use x="360" y="1720" href="#r1"/>
<use x="1560" y="1120" href="#r1"/>
<use x="1200" y="1120" href="#r1"/>
<use x="920" y="1160" href="#r1"/>
<use x="1200" y="1280" href="#r1"/>
<use x="960" y="1600" href="#r1"/>
<use x="1240" y="1120" href="#r1"/>
<use x="1600" y="1160" href="#r1"/>
<use x="1320" y="1000" href="#r1"/>
<use x="1200" y="1240" href="#r1"/>
<use x="1200" y="920" href="#r1"/>
<use x="960" y="1440" href="#r1"/>
<use x="1440" y="1280" href="#r1"/>
<use x="720" y="1440" href="#r1"/>
<use x="1040" y="1400" href="#r1"/>
<use x="960" y="1080" href="#r1"/>
<use x="1120" y="1320" href="#r1"/>
<use x="1120" y="1280" href="#r1"/>
<use x="1160" y="880" href="#r1"/>
<use x="1120" y="920" href="#r1"/>
<use x="1400" y="1000" href="#r1"/>
<use x="1000" y="1320" href="#r1"/>
<use x="1000" y="1280" href="#r1"/>
<use x="960" y="1320" href="#r1"/>
<use x="1240" y="1280" href="#r1"/>
<use x="1120" y="1240" href="#r1"/>
<use x="800" y="1240" href="#r1"/>
<use x="560" y="1240" href="#r1"/>
<use x="1160" y="1240" href="#r1"/>
<use x="1160" y="1320" href="#r1"/>
<use x="720" y="1360" href="#r1"/>
<use x="280" y="1360" href="#r1"/>
<use x="800" y="1360" href="#r1"/>
<use x="1280" y="1280" href="#r1"/>
<use x="1400" y="1440" href="#r1"/>
<use x="1800" y="1440" href="#r1"/>
<use x="1320" y="1400" href="#r1"/>
<use x="1400" y="1360" href="#r1"/>
<use x="1480" y="1360" href="#r1"/>
<use x="1360" y="1360" href="#r1"/>
<use x="1360" y="1680" href="#r1"/>
<use x="1400" y="1720" href="#r1"/>
<use x="1320" y="1360" href="#r1"/>
<use x="520" y="1480" href="#r1"/>
<use x="920" y="1560" href="#r1"/>
<use x="960" y="1560" href="#r1"/>
<use x="1080" y="1600" href="#r1"/>
<use x="920" y="1520" href="#r1"/>
<use x="1440" y="1320" href="#r1"/>
<use x="840" y="1480" href="#r1"/>
<use x="1320" y="1280" href="#r1"/>
<use x="1360" y="1280" href="#r1"/>
<use x="1400" y="1640" href="#r1"/>
<use x="1120" y="1560" href="#r1"/>
<use x="1040" y="1760" href="#r1"/>
<use x="800" y="1640" href="#r1"/>
<use x="1480" y="1480" href="#r1"/>
<use x="1360" y="1120" href="#r1"/>
<use x="1400" y="1520" href="#r1"/>
<use x="1440" y="1600" href="#r1"/>
<use x="640" y="1720" href="#r1"/>
<use x="1160" y="1280" href="#r1"/>
<use x="1480" y="1120" href="#r1"/>
<use x="1520" y="1280" href="#r1"/>
<use x="1280" y="1320" href="#r1"/>
<use x="840" y="1280" href="#r1"/>
<use x="920" y="1120" href="#r1"/>
<use x="960" y="1160" href="#r1"/>
<use x="920" y="1240" href="#r1"/>
<use x="680" y="1360" href="#r1"/>
<use x="1480" y="1320" href="#r1"/>
<use x="1240" y="1320" href="#r1"/>
<use x="760" y="1280" href="#r1"/>
<use x="720" y="1280" href="#r1"/>
<use x="920" y="1200" href="#r1"/>
<use x="680" y="1280" href="#r1"/>
<use x="480" y="1320" href="#r1"/>
<use x="400" y="1400" href="#r1"/>
<use x="1560" y="1320" href="#r1"/>
<use x="640" y="1280" href="#r1"/>
<use x="640" y="1360" href="#r1"/>
<use x="440" y="1360" href="#r1"/>
<use x="360" y="1360" href="#r1"/>
<use x="1120" y="1400" href="#r1"/>
<use x="480" y="1400" href="#r1"/>
<use x="520" y="1320" href="#r1"/>
<use x="480" y="1360" href="#r1"/>
<use x="800" y="1280" href="#r1"/>
<use x="600" y="1320" href="#r1"/>
<use x="1200" y="1200" href="#r1"/>
<use x="520" y="1280" href="#r1"/>
<use x="880" y="1200" href="#r1"/>
<use x="840" y="1200" href="#r1"/>
<use x="560" y="1440" href="#r1"/>
<use x="400" y="1360" href="#r1"/>
<use x="120" y="1360" href="#r1"/>
<use x="640" y="1240" href="#r1"/>
<use x="520" y="1360" href="#r1"/>
<use x="1880" y="1400" href="#r1"/>
<use x="1400" y="1120" href="#r1"/>
<use x="1440" y="1200" href="#r1"/>
<use x="1440" y="1160" href="#r1"/>
<use x="1280" y="1040" href="#r1"/>
<use x="1320" y="1080" href="#r1"/>
<use x="1720" y="1240" href="#r1"/>
<use x="1240" y="1080" href="#r1"/>
<use x="1320" y="1040" href="#r1"/>
<use x="1480" y="1200" href="#r1"/>
<use x="1200" y="1080" href="#r1"/>
<use x="1080" y="1040" href="#r1"/>
<use x="1320" y="1120" href="#r1"/>
<use x="1360" y="1080" href="#r1"/>
<use x="1440" y="1080" href="#r1"/>
<use x="1560" y="1200" href="#r1"/>
<use x="1160" y="1080" href="#r1"/>
<use x="1640" y="1080" href="#r1"/>
<use x="1760" y="1400" href="#r1"/>
<use x="320" y="1440" href="#r1"/>
<use x="440" y="1440" href="#r1"/>
<use x="560" y="1520" href="#r1"/>
<use x="880" y="1240" href="#r1"/>
<use x="880" y="1320" href="#r1"/>
<use x="480" y="1520" href="#r1"/>
<use x="320" y="1360" href="#r1"/>
<use x="880" y="1360" href="#r1"/>
<use x="960" y="1400" href="#r1"/>
<use x="1000" y="1440" href="#r1"/>
<use x="920" y="1480" href="#r1"/>
<use x="760" y="1520" href="#r1"/>
<use x="680" y="1480" href="#r1"/>
<use x="240" y="1360" href="#r1"/>
<use x="1080" y="1160" href="#r1"/>
<use x="1000" y="1160" href="#r1"/>
<use x="1320" y="1200" href="#r1"/>
<use x="1040" y="1320" href="#r1"/>
<use x="160" y="1360" href="#r1"/>
<use x="1080" y="1280" href="#r1"/>
<use x="1360" y="1200" href="#r1"/>
<use x="720" y="1240" href="#r1"/>
<use x="400" y="1320" href="#r1"/>
<use x="40" y="1360" href="#r1"/>
<use x="1040" y="1200" href="#r1"/>
<use x="1160" y="1040" href="#r1"/>
<use x="720" y="1400" href="#r1"/>
<use x="1000" y="880" href="#r1"/>
<use x="840" y="1120" href="#r1"/>
<use x="1200" y="1040" href="#r1"/>
<use x="1080" y="1440" href="#r1"/>
<use x="1040" y="1240" href="#r1"/>
<use x="1040" y="1280" href="#r1"/>
<use x="1120" y="1360" href="#r1"/>
<use x="1040" y="1440" href="#r1"/>
<use x="480" y="1720" href="#r1"/>
<use x="1000" y="1240" href="#r1"/>
<use x="1080" y="1120" href="#r1"/>
<use x="880" y="1280" href="#r1"/>
<use x="1000" y="1400" href="#r1"/>
<use x="960" y="1360" href="#r1"/>
<use x="640" y="1320" href="#r1"/>
<use x="1000" y="1200" href="#r1"/>
<use x="1120" y="1160" href="#r1"/>
<use x="1080" y="1240" href="#r1"/>
<use x="680" y="1320" href="#r1"/>
<use x="1240" y="1400" href="#r1"/>
<use x="1240" y="1360" href="#r1"/>
<use x="440" y="1480" href="#r1"/>
<use x="560" y="1400" href="#r1"/>
<use x="1760" y="1240" href="#r1"/>
<use x="1400" y="1240" href="#r1"/>
<use x="1560" y="1360" href="#r1"/>
<use x="1160" y="1200" href="#r1"/>
<use x="1080" y="1200" href="#r1"/>
<use x="1600" y="1360" href="#r1"/>
<use x="1240" y="1240" href="#r1"/>
<use x="960" y="1200" href="#r1"/>
<use x="880" y="1080" href="#r1"/>
<use x="800" y="1120" href="#r1"/>
<use x="400" y="1240" href="#r1"/>
<use x="960" y="1280" href="#r1"/>
<use x="1480" y="1080" href="#r1"/>
<use x="1520" y="1240" href="#r1"/>
<use x="1680" y="1360" href="#r1"/>
<use x="760" y="1320" href="#r1"/>
<use x="720" y="1560" href="#r1"/>
<use x="1520" y="1200" href="#r1"/>
<use x="1160" y="1160" href="#r1"/>
<use x="1360" y="1400" href="#r1"/>
<use x="1720" y="1360" href="#r1"/>
<use x="1400" y="1400" href="#r1"/>
<use x="1480" y="1280" href="#r1"/>
<use x="1040" y="1080" href="#r1"/>
<use x="960" y="880" href="#r1"/>
<use x="880" y="1560" href="#r1"/>
<use x="640" y="1560" href="#r1"/>
<use x="320" y="1480" href="#r1"/>
<use x="1040" y="1040" href="#r1"/>
<use x="1000" y="1120" href="#r1"/>
<use x="1280" y="1160" href="#r1"/>
<use x="1560" y="1240" href="#r1"/>
<use x="1560" y="1280" href="#r1"/>
<use x="1200" y="1320" href="#r1"/>
<use x="1840" y="1440" href="#r1"/>
<use x="1160" y="1000" href="#r1"/>
<use x="1880" y="1360" href="#r1"/>
<use x="1720" y="1520" href="#r1"/>
<use x="1160" y="760" href="#r1"/>
<use x="1320" y="920" href="#r1"/>
<use x="1400" y="1080" href="#r1"/>
<use x="1240" y="1440" href="#r1"/>
<use x="1600" y="1280" href="#r1"/>
<use x="1600" y="1240" href="#r1"/>
<use x="600" y="1280" href="#r1"/>
<use x="1840" y="1480" href="#r1"/>
<use x="1040" y="1160" href="#r1"/>
<use x="480" y="1280" href="#r1"/>
<use x="840" y="1160" href="#r1"/>
<use x="600" y="1240" href="#r1"/>
<use x="1640" y="1240" href="#r1"/>
<use x="1680" y="1240" href="#r1"/>
<use x="440" y="1280" href="#r1"/>
<use x="880" y="1720" href="#r1"/>
<use x="840" y="1720" href="#r1"/>
<use x="800" y="1720" href="#r1"/>
<use x="1160" y="1560" href="#r1"/>
<use x="840" y="1560" href="#r1"/>
<use x="800" y="1560" href="#r1"/>
<use x="880" y="1760" href="#r1"/>
<use x="760" y="1560" href="#r1"/>
<use x="840" y="1760" href="#r1"/>
<use x="960" y="1760" href="#r1"/>
<use x="800" y="1760" href="#r1"/>
<use x="1120" y="1200" href="#r1"/>
<use x="1600" y="1320" href="#r1"/>
<use x="1760" y="1320" href="#r1"/>
<use x="920" y="1360" href="#r1"/>
<use x="1120" y="1000" href="#r1"/>
<use x="1320" y="1160" href="#r1"/>
<use x="680" y="1520" href="#r1"/>
<use x="1600" y="1400" href="#r1"/>
<use x="1160" y="960" href="#r1"/>
<use x="800" y="1200" href="#r1"/>
<use x="1000" y="1080" href="#r1"/>
<use x="600" y="1520" href="#io"/>
<use x="520" y="1440" href="#io"/>
<use x="600" y="1400" href="#io"/>
<use x="800" y="1520" href="#io"/>
<use x="480" y="1480" href="#io"/>
<use x="520" y="1520" href="#io"/>
<use x="960" y="1240" href="#io"/>
<use x="680" y="1400" href="#io"/>
<use x="400" y="1480" href="#io"/>
<use x="360" y="1440" href="#io"/>
<use x="560" y="1480" href="#io"/>
<use x="560" y="1280" href="#io"/>
<use x="360" y="1320" href="#io"/>
<use x="840" y="1240" href="#io"/>
<use x="200" y="1360" href="#io"/>
<use x="480" y="1240" href="#io"/>
<use x="560" y="840" href="#io"/>
<use x="640" y="1520" href="#io"/>
<use x="880" y="1520" href="#io"/>
<use x="1360" y="1240" href="#io"/>
<use x="1120" y="1440" href="#io"/>
<use x="1440" y="840" href="#io"/>
<use x="880" y="1600" href="#io"/>
<use x="1360" y="560" href="#io"/>
<use x="1200" y="320" href="#io"/>
<use x="1280" y="1440" href="#io"/>
<use x="960" y="480" href="#io"/>
<use x="80" y="1360" href="#io"/>
<use x="1360" y="680" href="#io"/>
<use x="800" y="1320" href="#io"/>
<use x="1120" y="1080" href="#io"/>
<use x="1360" y="1480" href="#io"/>
<use x="480" y="1440" href="#io"/>
<use x="1280" y="40" href="#io"/>
<use x="1360" y="1160" href="#io"/>
<use x="1240" y="960" href="#io"/>
<use x="1480" y="1520" href="#io"/>
<use x="1320" y="1520" href="#io"/>
<use x="1160" y="1360" href="#io"/>
<use x="1280" y="1600" href="#io"/>
<use x="1280" y="1640" href="#io"/>
<use x="1160" y="1440" href="#io"/>
<use x="1520" y="1160" href="#io"/>
<use x="400" y="1440" href="#io"/>
<use x="760" y="1400" href="#io"/>
<use x="400" y="1280" href="#io"/>
<use x="440" y="1240" href="#io"/>
<use x="800" y="1400" href="#io"/>
<use x="1040" y="1360" href="#io"/>
<use x="960" y="1520" href="#io"/>
<use x="1000" y="1560" href="#io"/>
<use x="1160" y="1400" href="#io"/>
<use x="1200" y="1400" href="#io"/>
<use x="640" y="1400" href="#io"/>
<use x="1480" y="1240" href="#io"/>
<use x="800" y="1480" href="#io"/>
<use x="840" y="1320" href="#io"/>
<use x="600" y="1120" href="#io"/>
<use x="760" y="1440" href="#io"/>
<use x="800" y="1040" href="#io"/>
<use x="680" y="1240" href="#io"/>
<use x="680" y="1040" href="#io"/>
<use x="640" y="1160" href="#io"/>
<use x="1640" y="1360" href="#io"/>
<use x="720" y="1160" href="#io"/>
<use x="600" y="1440" href="#io"/>
<use x="1080" y="1680" href="#io"/>
<use x="280" y="1480" href="#io"/>
<use x="920" y="1720" href="#io"/>
<use x="1440" y="1120" href="#io"/>
<use x="1480" y="920" href="#io"/>
<use x="2000" y="1440" href="#io"/>
<use x="760" y="1240" href="#io"/>
<use x="920" y="800" href="#io"/>
<use x="1720" y="1200" href="#io"/>
<use x="880" y="1120" href="#io"/>
<use x="840" y="1440" href="#io"/>
<use x="1200" y="1000" href="#io"/>
<use x="1920" y="1320" href="#io"/>
<use x="1960" y="1320" href="#io"/>
<use x="360" y="1240" href="#io"/>
<line x1="620" y1="1540" x2="1860" y2="1380"/>
<line x1="540" y1="1460" x2="1860" y2="1380"/>
<line x1="620" y1="1420" x2="1860" y2="1380"/>
<line x1="820" y1="1540" x2="1860" y2="1380"/>
<line x1="500" y1="1500" x2="1860" y2="1380"/>
<line x1="540" y1="1540" x2="1860" y2="1380"/>
<line x1="980" y1="1260" x2="1860" y2="1380"/>
<line x1="700" y1="1420" x2="1860" y2="1380"/>
<line x1="420" y1="1500" x2="1180" y2="1500"/>
<line x1="380" y1="1460" x2="1180" y2="1500"/>
<line x1="580" y1="1500" x2="1180" y2="1500"/>
<line x1="580" y1="1300" x2="1180" y2="1500"/>
<line x1="380" y1="1340" x2="1180" y2="1500"/>
<line x1="860" y1="1260" x2="1180" y2="1500"/>
<line x1="220" y1="1380" x2="1180" y2="1500"/>
<line x1="500" y1="1260" x2="1180" y2="1500"/>
<line x1="580" y1="860" x2="900" y2="1100"/>
<line x1="660" y1="1540" x2="820" y2="1140"/>
<line x1="900" y1="1540" x2="420" y2="1260"/>
<line x1="1380" y1="1260" x2="980" y2="1300"/>
<line x1="1140" y1="1460" x2="1180" y2="1180"/>
<line x1="1460" y1="860" x2="1060" y2="1060"/>
<line x1="900" y1="1620" x2="1500" y2="1620"/>
<line x1="1380" y1="580" x2="1140" y2="940"/>
<line x1="1220" y1="340" x2="1180" y2="900"/>
<line x1="1300" y1="1460" x2="1020" y2="1500"/>
<line x1="980" y1="500" x2="980" y2="1100"/>
<line x1="100" y1="1380" x2="1060" y2="1420"/>
<line x1="1380" y1="700" x2="1260" y2="1140"/>
<line x1="820" y1="1340" x2="1260" y2="1140"/>
<line x1="1140" y1="1100" x2="1580" y2="1140"/>
<line x1="1380" y1="1500" x2="1580" y2="1140"/>
<line x1="500" y1="1460" x2="700" y2="1580"/>
<line x1="1300" y1="60" x2="700" y2="1580"/>
<line x1="1380" y1="1180" x2="1300" y2="1540"/>
<line x1="1260" y1="980" x2="1300" y2="1540"/>
<line x1="1500" y1="1540" x2="940" y2="1700"/>
<line x1="1340" y1="1540" x2="1020" y2="1740"/>
<line x1="1180" y1="1380" x2="1700" y2="1500"/>
<line x1="1300" y1="1620" x2="1620" y2="1580"/>
<line x1="1300" y1="1660" x2="980" y2="1700"/>
<line x1="1180" y1="1460" x2="940" y2="1700"/>
<line x1="1540" y1="1180" x2="820" y2="1220"/>
<line x1="420" y1="1460" x2="1260" y2="1460"/>
<line x1="780" y1="1420" x2="1620" y2="1300"/>
<line x1="420" y1="1300" x2="1620" y2="1260"/>
<line x1="460" y1="1260" x2="620" y2="1300"/>
<line x1="820" y1="1420" x2="1860" y2="1500"/>
<line x1="1060" y1="1380" x2="1060" y2="1180"/>
<line x1="980" y1="1540" x2="500" y2="1300"/>
<line x1="1020" y1="1580" x2="860" y2="1180"/>
<line x1="1180" y1="1420" x2="620" y2="1260"/>
<line x1="1220" y1="1420" x2="1660" y2="1260"/>
<line x1="660" y1="1420" x2="1700" y2="1260"/>
<line x1="1500" y1="1260" x2="1780" y2="1500"/>
<line x1="820" y1="1500" x2="1620" y2="1300"/>
<line x1="860" y1="1340" x2="1620" y2="1260"/>
<line x1="620" y1="1140" x2="620" y2="1300"/>
<line x1="780" y1="1460" x2="1860" y2="1500"/>
<line x1="820" y1="1060" x2="1060" y2="1180"/>
<line x1="700" y1="1260" x2="500" y2="1300"/>
<line x1="700" y1="1060" x2="860" y2="1180"/>
<line x1="660" y1="1180" x2="620" y2="1260"/>
<line x1="1660" y1="1380" x2="1660" y2="1260"/>
<line x1="740" y1="1180" x2="1700" y2="1260"/>
<line x1="620" y1="1460" x2="340" y2="1740"/>
<line x1="1100" y1="1700" x2="1580" y2="1860"/>
<line x1="300" y1="1500" x2="1180" y2="1660"/>
<line x1="940" y1="1740" x2="1620" y2="1820"/>
<line x1="1460" y1="1140" x2="1380" y2="1620"/>
<line x1="1500" y1="940" x2="1140" y2="1020"/>
<line x1="2020" y1="1460" x2="1940" y2="1740"/>
<line x1="780" y1="1260" x2="1860" y2="1340"/>
<line x1="940" y1="820" x2="1140" y2="1140"/>
<line x1="1740" y1="1220" x2="1660" y2="1540"/>
<line x1="900" y1="1140" x2="1860" y2="1340"/>
<line x1="860" y1="1460" x2="1060" y2="1580"/>
<line x1="1220" y1="1020" x2="1540" y2="1140"/>
<line x1="1940" y1="1340" x2="1900" y2="1660"/>
<line x1="1980" y1="1340" x2="1700" y2="1580"/>
<line x1="380" y1="1260" x2="900" y2="1180"/>
</svg>
