<svg viewBox="0 0 4080 4080" xmlns="http://www.w3.org/2000/svg">
  <style type="text/css">
    @import "mysvg.css"
  </style>

  <!-- Create mask that we'll use to define a slight gradient -->
  <mask maskUnits="userSpaceOnUse" id="fade">
    <!-- Here's that slight gradient -->
    <linearGradient id="gradient" x1="0" y1="0" x2="0" y2="100%">
      <stop offset ="0" style="stop-color: #FFFFFF" />
      <stop offset ="1" style="stop-color: #000000" />
    </linearGradient>
    <!-- The canvas for our mask -->
    <rect fill="url(#gradient)" width="100%" height="100%" />
  </mask>
    
  <!-- Let's define the pattern -->
  <!-- The width and height should be double the circle radius we plan to use -->
  <pattern id="pattern-circles" x="0" y="0" width="40" height="40" patternUnits="userSpaceOnUse">
    <!-- Now let's draw the circle -->
    <!-- We're going to define the `fill` in the CSS for flexible use -->
    <circle class="cell" opacity="0.2" cx="20" cy="20" r="15" />
  </pattern>

  <!-- Let's define the pattern -->
  <!-- The width and height should be double the circle radius we plan to use -->
  <pattern id="pattern-io" x="0" y="0" width="40" height="40" patternUnits="userSpaceOnUse">
    <!-- Now let's draw the circle -->
    <!-- We're going to define the `fill` in the CSS for flexible use -->
    <circle class="iopad" opacity="0.2" cx="20" cy="20" r="15" />
  </pattern>

  <!-- The canvas with our applied pattern -->
  <rect x="40" y="40" width="4000" height="4000" fill="url(#pattern-circles)" />

  <rect x="40" y="0" width="4000" height="40" fill="url(#pattern-io)" />
  <rect x="40" y="4040" width="4000" height="40" fill="url(#pattern-io)" />
  <rect x="0" y="40" width="40" height="4000" fill="url(#pattern-io)" />
  <rect x="4040" y="40" width="40" height="4000" fill="url(#pattern-io)" />
  <defs>
    <!-- A circle of radius 200 -->
    <circle id = "s1" cx = "200" cy = "200" r = "200" fill = "yellow" stroke = "black" stroke-width = "3"/>
    <!-- An ellipse (rx=200,ry=150) -->
    <ellipse id = "s2" cx = "200" cy = "150" rx = "200" ry = "150" fill = "salmon" stroke = "black" stroke-width = "3"/>
    <rect id = "r1" width="35" height="35" fill = "#FF00A7" opacity="0.2" stroke = "black" stroke-width = "3"/>
    <rect id = "io" width="35" height="35" fill = "#00E7FF" opacity="0.2" stroke = "black" stroke-width = "3"/>
  </defs>
<use x="880" y="2520" href="#r1"/>
<use x="2680" y="2480" href="#r1"/>
<use x="2720" y="2400" href="#r1"/>
<use x="920" y="2800" href="#r1"/>
<use x="1000" y="2720" href="#r1"/>
<use x="960" y="2800" href="#r1"/>
<use x="1640" y="2760" href="#r1"/>
<use x="1440" y="2840" href="#r1"/>
<use x="2280" y="2960" href="#r1"/>
<use x="2400" y="3040" href="#r1"/>
<use x="2880" y="2480" href="#r1"/>
<use x="2360" y="2880" href="#r1"/>
<use x="1120" y="2680" href="#r1"/>
<use x="2200" y="2720" href="#r1"/>
<use x="3080" y="2840" href="#r1"/>
<use x="2520" y="2760" href="#r1"/>
<use x="2120" y="2880" href="#r1"/>
<use x="2160" y="2880" href="#r1"/>
<use x="2640" y="2880" href="#r1"/>
<use x="1320" y="3200" href="#r1"/>
<use x="2040" y="2840" href="#r1"/>
<use x="2680" y="3040" href="#r1"/>
<use x="2240" y="2840" href="#r1"/>
<use x="2320" y="2880" href="#r1"/>
<use x="2760" y="2920" href="#r1"/>
<use x="2200" y="3040" href="#r1"/>
<use x="2960" y="2840" href="#r1"/>
<use x="2440" y="3000" href="#r1"/>
<use x="2080" y="2840" href="#r1"/>
<use x="3080" y="2920" href="#r1"/>
<use x="2960" y="3000" href="#r1"/>
<use x="3000" y="2720" href="#r1"/>
<use x="1160" y="3200" href="#r1"/>
<use x="2080" y="2720" href="#r1"/>
<use x="1080" y="2960" href="#r1"/>
<use x="3240" y="2680" href="#r1"/>
<use x="1800" y="2720" href="#r1"/>
<use x="2960" y="2560" href="#r1"/>
<use x="2840" y="2520" href="#r1"/>
<use x="2800" y="2680" href="#r1"/>
<use x="2880" y="2440" href="#r1"/>
<use x="2840" y="2440" href="#r1"/>
<use x="2880" y="2400" href="#r1"/>
<use x="2800" y="2520" href="#r1"/>
<use x="2120" y="2800" href="#r1"/>
<use x="1880" y="2720" href="#r1"/>
<use x="2960" y="2600" href="#r1"/>
<use x="2120" y="2760" href="#r1"/>
<use x="2200" y="2640" href="#r1"/>
<use x="2320" y="2600" href="#r1"/>
<use x="1920" y="2720" href="#r1"/>
<use x="2440" y="2760" href="#r1"/>
<use x="3680" y="2600" href="#r1"/>
<use x="3600" y="2800" href="#r1"/>
<use x="2920" y="2600" href="#r1"/>
<use x="2560" y="2840" href="#r1"/>
<use x="2920" y="2560" href="#r1"/>
<use x="2840" y="2880" href="#r1"/>
<use x="2920" y="2840" href="#r1"/>
<use x="2800" y="2560" href="#r1"/>
<use x="2840" y="2640" href="#r1"/>
<use x="3280" y="2640" href="#r1"/>
<use x="2560" y="2680" href="#r1"/>
<use x="2600" y="2880" href="#r1"/>
<use x="960" y="2680" href="#r1"/>
<use x="1200" y="2800" href="#r1"/>
<use x="3200" y="2720" href="#r1"/>
<use x="3120" y="2400" href="#r1"/>
<use x="3000" y="2560" href="#r1"/>
<use x="3680" y="2800" href="#r1"/>
<use x="3000" y="2520" href="#r1"/>
<use x="3360" y="2640" href="#r1"/>
<use x="2200" y="2880" href="#r1"/>
<use x="2680" y="3000" href="#r1"/>
<use x="3400" y="2600" href="#r1"/>
<use x="2760" y="2400" href="#r1"/>
<use x="3720" y="2680" href="#r1"/>
<use x="3320" y="2840" href="#r1"/>
<use x="2320" y="2920" href="#r1"/>
<use x="3160" y="2720" href="#r1"/>
<use x="2240" y="2680" href="#r1"/>
<use x="3240" y="2720" href="#r1"/>
<use x="1840" y="2960" href="#r1"/>
<use x="3600" y="2880" href="#r1"/>
<use x="3520" y="2640" href="#r1"/>
<use x="2440" y="2920" href="#r1"/>
<use x="2920" y="2880" href="#r1"/>
<use x="2440" y="2800" href="#r1"/>
<use x="2280" y="2840" href="#r1"/>
<use x="1160" y="2600" href="#r1"/>
<use x="1160" y="2800" href="#r1"/>
<use x="1120" y="2840" href="#r1"/>
<use x="1200" y="2600" href="#r1"/>
<use x="1920" y="2680" href="#r1"/>
<use x="1080" y="2560" href="#r1"/>
<use x="1040" y="2480" href="#r1"/>
<use x="3240" y="2840" href="#r1"/>
<use x="3560" y="2880" href="#r1"/>
<use x="3160" y="2840" href="#r1"/>
<use x="1160" y="2560" href="#r1"/>
<use x="2840" y="2600" href="#r1"/>
<use x="1400" y="2400" href="#r1"/>
<use x="1640" y="2400" href="#r1"/>
<use x="1040" y="2600" href="#r1"/>
<use x="2200" y="2840" href="#r1"/>
<use x="3880" y="2800" href="#r1"/>
<use x="2200" y="2800" href="#r1"/>
<use x="1960" y="2560" href="#r1"/>
<use x="3520" y="2920" href="#r1"/>
<use x="3280" y="2720" href="#r1"/>
<use x="3120" y="2960" href="#r1"/>
<use x="3320" y="2720" href="#r1"/>
<use x="3560" y="2920" href="#r1"/>
<use x="2560" y="2760" href="#r1"/>
<use x="2040" y="2800" href="#r1"/>
<use x="1960" y="2960" href="#r1"/>
<use x="1480" y="2840" href="#r1"/>
<use x="3720" y="2640" href="#r1"/>
<use x="1880" y="2760" href="#r1"/>
<use x="3360" y="2720" href="#r1"/>
<use x="2960" y="2400" href="#r1"/>
<use x="3640" y="2640" href="#r1"/>
<use x="3760" y="2640" href="#r1"/>
<use x="3800" y="2640" href="#r1"/>
<use x="3640" y="2600" href="#r1"/>
<use x="3600" y="2680" href="#r1"/>
<use x="2440" y="2720" href="#r1"/>
<use x="3280" y="2960" href="#r1"/>
<use x="2400" y="2720" href="#r1"/>
<use x="3200" y="2640" href="#r1"/>
<use x="3040" y="2680" href="#r1"/>
<use x="3400" y="2720" href="#r1"/>
<use x="3080" y="2560" href="#r1"/>
<use x="3160" y="2760" href="#r1"/>
<use x="3320" y="2680" href="#r1"/>
<use x="3080" y="2800" href="#r1"/>
<use x="3120" y="2840" href="#r1"/>
<use x="2280" y="2760" href="#r1"/>
<use x="2960" y="2640" href="#r1"/>
<use x="3000" y="2760" href="#r1"/>
<use x="2160" y="2760" href="#r1"/>
<use x="2440" y="2960" href="#r1"/>
<use x="3000" y="2800" href="#r1"/>
<use x="3440" y="2720" href="#r1"/>
<use x="1960" y="2760" href="#r1"/>
<use x="1400" y="2720" href="#r1"/>
<use x="2480" y="2880" href="#r1"/>
<use x="2400" y="2800" href="#r1"/>
<use x="3000" y="2680" href="#r1"/>
<use x="3120" y="2680" href="#r1"/>
<use x="3480" y="2720" href="#r1"/>
<use x="1800" y="2880" href="#r1"/>
<use x="2520" y="2720" href="#r1"/>
<use x="2280" y="2680" href="#r1"/>
<use x="2240" y="2720" href="#r1"/>
<use x="2080" y="2920" href="#r1"/>
<use x="3120" y="2600" href="#r1"/>
<use x="3040" y="2720" href="#r1"/>
<use x="2680" y="2800" href="#r1"/>
<use x="3000" y="3040" href="#r1"/>
<use x="2480" y="3000" href="#r1"/>
<use x="2760" y="2800" href="#r1"/>
<use x="1640" y="2840" href="#r1"/>
<use x="1720" y="2840" href="#r1"/>
<use x="1760" y="2840" href="#r1"/>
<use x="2400" y="2840" href="#r1"/>
<use x="3080" y="2960" href="#r1"/>
<use x="1800" y="2800" href="#r1"/>
<use x="1680" y="2800" href="#r1"/>
<use x="1640" y="2800" href="#r1"/>
<use x="1600" y="2800" href="#r1"/>
<use x="1760" y="2880" href="#r1"/>
<use x="2520" y="2680" href="#r1"/>
<use x="2280" y="2920" href="#r1"/>
<use x="2000" y="2800" href="#r1"/>
<use x="2560" y="2480" href="#r1"/>
<use x="680" y="2720" href="#r1"/>
<use x="2600" y="2680" href="#r1"/>
<use x="2400" y="2960" href="#r1"/>
<use x="2040" y="2920" href="#r1"/>
<use x="2000" y="2920" href="#r1"/>
<use x="3760" y="2840" href="#r1"/>
<use x="3080" y="2880" href="#r1"/>
<use x="3800" y="2800" href="#r1"/>
<use x="2840" y="2760" href="#r1"/>
<use x="2240" y="2880" href="#r1"/>
<use x="1720" y="2920" href="#r1"/>
<use x="2240" y="2920" href="#r1"/>
<use x="2200" y="2920" href="#r1"/>
<use x="3360" y="2880" href="#r1"/>
<use x="3320" y="2880" href="#r1"/>
<use x="2640" y="2760" href="#r1"/>
<use x="2640" y="2840" href="#r1"/>
<use x="800" y="2720" href="#r1"/>
<use x="3040" y="2840" href="#r1"/>
<use x="1920" y="2800" href="#r1"/>
<use x="2520" y="2840" href="#r1"/>
<use x="2440" y="2680" href="#r1"/>
<use x="1240" y="2800" href="#r1"/>
<use x="2600" y="2760" href="#r1"/>
<use x="2560" y="2560" href="#r1"/>
<use x="760" y="2720" href="#r1"/>
<use x="2920" y="2920" href="#r1"/>
<use x="2480" y="2840" href="#r1"/>
<use x="1680" y="2880" href="#r1"/>
<use x="2560" y="2600" href="#r1"/>
<use x="1760" y="2800" href="#r1"/>
<use x="2560" y="2720" href="#r1"/>
<use x="2600" y="2640" href="#r1"/>
<use x="2720" y="2520" href="#r1"/>
<use x="2720" y="2320" href="#r1"/>
<use x="2680" y="2320" href="#r1"/>
<use x="2760" y="2320" href="#r1"/>
<use x="2680" y="2520" href="#r1"/>
<use x="2680" y="2400" href="#r1"/>
<use x="2520" y="2600" href="#r1"/>
<use x="1920" y="2840" href="#r1"/>
<use x="2080" y="2680" href="#r1"/>
<use x="2880" y="2800" href="#r1"/>
<use x="1880" y="2680" href="#r1"/>
<use x="2840" y="2560" href="#r1"/>
<use x="2520" y="2640" href="#r1"/>
<use x="2480" y="2800" href="#r1"/>
<use x="2600" y="2600" href="#r1"/>
<use x="2680" y="2760" href="#r1"/>
<use x="2360" y="2960" href="#r1"/>
<use x="2800" y="2480" href="#r1"/>
<use x="1760" y="2680" href="#r1"/>
<use x="2480" y="2600" href="#r1"/>
<use x="1280" y="2720" href="#r1"/>
<use x="2000" y="2760" href="#r1"/>
<use x="2440" y="2640" href="#r1"/>
<use x="2240" y="2800" href="#r1"/>
<use x="1400" y="2920" href="#r1"/>
<use x="2040" y="2760" href="#r1"/>
<use x="1680" y="2680" href="#r1"/>
<use x="2760" y="2520" href="#r1"/>
<use x="2760" y="2600" href="#r1"/>
<use x="1640" y="2680" href="#r1"/>
<use x="2400" y="2640" href="#r1"/>
<use x="1600" y="2680" href="#r1"/>
<use x="1560" y="2680" href="#r1"/>
<use x="2320" y="2640" href="#r1"/>
<use x="2440" y="2600" href="#r1"/>
<use x="1520" y="2680" href="#r1"/>
<use x="2280" y="2640" href="#r1"/>
<use x="1480" y="2680" href="#r1"/>
<use x="2240" y="2640" href="#r1"/>
<use x="2680" y="2440" href="#r1"/>
<use x="2560" y="2640" href="#r1"/>
<use x="1440" y="2680" href="#r1"/>
<use x="1400" y="2880" href="#r1"/>
<use x="2280" y="2600" href="#r1"/>
<use x="2520" y="2560" href="#r1"/>
<use x="1760" y="2720" href="#r1"/>
<use x="1440" y="2720" href="#r1"/>
<use x="1680" y="2720" href="#r1"/>
<use x="1640" y="2720" href="#r1"/>
<use x="1600" y="2720" href="#r1"/>
<use x="2920" y="2680" href="#r1"/>
<use x="1400" y="2680" href="#r1"/>
<use x="1560" y="2720" href="#r1"/>
<use x="1840" y="2680" href="#r1"/>
<use x="1520" y="2720" href="#r1"/>
<use x="2720" y="2640" href="#r1"/>
<use x="1960" y="2800" href="#r1"/>
<use x="1480" y="2720" href="#r1"/>
<use x="2760" y="2680" href="#r1"/>
<use x="2120" y="2840" href="#r1"/>
<use x="1840" y="2840" href="#r1"/>
<use x="2360" y="2720" href="#r1"/>
<use x="720" y="2720" href="#r1"/>
<use x="1680" y="2840" href="#r1"/>
<use x="2440" y="2560" href="#r1"/>
<use x="2680" y="2600" href="#r1"/>
<use x="1360" y="2720" href="#r1"/>
<use x="2360" y="2760" href="#r1"/>
<use x="1800" y="2680" href="#r1"/>
<use x="2800" y="2600" href="#r1"/>
<use x="1320" y="2720" href="#r1"/>
<use x="2720" y="2680" href="#r1"/>
<use x="2760" y="2560" href="#r1"/>
<use x="2640" y="2600" href="#r1"/>
<use x="2600" y="2480" href="#r1"/>
<use x="2600" y="2520" href="#r1"/>
<use x="2640" y="2480" href="#r1"/>
<use x="2720" y="2560" href="#r1"/>
<use x="2600" y="2360" href="#r1"/>
<use x="2680" y="2640" href="#r1"/>
<use x="2320" y="2840" href="#r1"/>
<use x="2720" y="2720" href="#r1"/>
<use x="2880" y="2680" href="#r1"/>
<use x="2640" y="2680" href="#r1"/>
<use x="2720" y="2600" href="#r1"/>
<use x="2680" y="2560" href="#r1"/>
<use x="2720" y="2800" href="#r1"/>
<use x="2640" y="2640" href="#r1"/>
<use x="1440" y="2800" href="#r1"/>
<use x="2360" y="2800" href="#r1"/>
<use x="1200" y="2720" href="#r1"/>
<use x="2080" y="2760" href="#r1"/>
<use x="2760" y="2480" href="#r1"/>
<use x="2640" y="2520" href="#r1"/>
<use x="3280" y="2760" href="#r1"/>
<use x="2840" y="2480" href="#r1"/>
<use x="2560" y="2800" href="#r1"/>
<use x="1720" y="2680" href="#r1"/>
<use x="3440" y="2600" href="#r1"/>
<use x="2400" y="2680" href="#r1"/>
<use x="3240" y="2640" href="#r1"/>
<use x="2200" y="2760" href="#r1"/>
<use x="2040" y="2960" href="#r1"/>
<use x="1960" y="2920" href="#r1"/>
<use x="2040" y="3040" href="#r1"/>
<use x="2480" y="3040" href="#r1"/>
<use x="2400" y="2880" href="#r1"/>
<use x="2760" y="2960" href="#r1"/>
<use x="1920" y="2760" href="#r1"/>
<use x="2120" y="2680" href="#r1"/>
<use x="1880" y="2920" href="#r1"/>
<use x="1840" y="2920" href="#r1"/>
<use x="1280" y="2640" href="#r1"/>
<use x="2840" y="2920" href="#r1"/>
<use x="2880" y="2920" href="#r1"/>
<use x="1560" y="2880" href="#r1"/>
<use x="3400" y="2880" href="#r1"/>
<use x="2480" y="2960" href="#r1"/>
<use x="2160" y="2840" href="#r1"/>
<use x="840" y="2720" href="#r1"/>
<use x="3000" y="2960" href="#r1"/>
<use x="1760" y="2920" href="#r1"/>
<use x="2080" y="2800" href="#r1"/>
<use x="2320" y="2760" href="#r1"/>
<use x="2600" y="2840" href="#r1"/>
<use x="1120" y="2720" href="#r1"/>
<use x="2920" y="2520" href="#r1"/>
<use x="2840" y="2840" href="#r1"/>
<use x="2920" y="2760" href="#r1"/>
<use x="2880" y="2720" href="#r1"/>
<use x="4000" y="2720" href="#r1"/>
<use x="3040" y="2800" href="#r1"/>
<use x="1000" y="2760" href="#r1"/>
<use x="1880" y="2800" href="#r1"/>
<use x="1960" y="2680" href="#r1"/>
<use x="2440" y="2840" href="#r1"/>
<use x="1680" y="2920" href="#r1"/>
<use x="1960" y="2880" href="#r1"/>
<use x="3120" y="2920" href="#r1"/>
<use x="3680" y="2880" href="#r1"/>
<use x="3360" y="2920" href="#r1"/>
<use x="3760" y="2880" href="#r1"/>
<use x="3400" y="2960" href="#r1"/>
<use x="3320" y="3000" href="#r1"/>
<use x="3280" y="2840" href="#r1"/>
<use x="3800" y="2880" href="#r1"/>
<use x="3600" y="2840" href="#r1"/>
<use x="3520" y="2840" href="#r1"/>
<use x="3560" y="2840" href="#r1"/>
<use x="3880" y="2880" href="#r1"/>
<use x="3200" y="2840" href="#r1"/>
<use x="3640" y="2880" href="#r1"/>
<use x="3440" y="2760" href="#r1"/>
<use x="3960" y="2800" href="#r1"/>
<use x="2600" y="3040" href="#r1"/>
<use x="2720" y="3040" href="#r1"/>
<use x="3800" y="2720" href="#r1"/>
<use x="3760" y="2720" href="#r1"/>
<use x="3240" y="2760" href="#r1"/>
<use x="3200" y="2760" href="#r1"/>
<use x="3480" y="2840" href="#r1"/>
<use x="3480" y="2760" href="#r1"/>
<use x="3640" y="2840" href="#r1"/>
<use x="3680" y="2840" href="#r1"/>
<use x="3440" y="2840" href="#r1"/>
<use x="3720" y="2840" href="#r1"/>
<use x="3520" y="2760" href="#r1"/>
<use x="3800" y="2840" href="#r1"/>
<use x="3920" y="2800" href="#r1"/>
<use x="3720" y="2760" href="#r1"/>
<use x="3720" y="2720" href="#r1"/>
<use x="3760" y="2760" href="#r1"/>
<use x="2640" y="2720" href="#r1"/>
<use x="3840" y="2840" href="#r1"/>
<use x="3840" y="2800" href="#r1"/>
<use x="3400" y="2800" href="#r1"/>
<use x="2640" y="3040" href="#r1"/>
<use x="2720" y="2960" href="#r1"/>
<use x="3120" y="2800" href="#r1"/>
<use x="3080" y="2640" href="#r1"/>
<use x="3080" y="2680" href="#r1"/>
<use x="3120" y="2640" href="#r1"/>
<use x="3200" y="2800" href="#r1"/>
<use x="3240" y="2800" href="#r1"/>
<use x="3480" y="2800" href="#r1"/>
<use x="3520" y="2880" href="#r1"/>
<use x="3040" y="2880" href="#r1"/>
<use x="2800" y="2920" href="#r1"/>
<use x="2800" y="2880" href="#r1"/>
<use x="3160" y="2880" href="#r1"/>
<use x="3200" y="2880" href="#r1"/>
<use x="3360" y="2800" href="#r1"/>
<use x="3360" y="2760" href="#r1"/>
<use x="2640" y="2920" href="#r1"/>
<use x="2720" y="2880" href="#r1"/>
<use x="2600" y="2800" href="#r1"/>
<use x="2560" y="2880" href="#r1"/>
<use x="2360" y="2840" href="#r1"/>
<use x="1240" y="3080" href="#r1"/>
<use x="3160" y="2800" href="#r1"/>
<use x="2840" y="2680" href="#r1"/>
<use x="2960" y="2680" href="#r1"/>
<use x="3320" y="2760" href="#r1"/>
<use x="2920" y="2800" href="#r1"/>
<use x="1880" y="2840" href="#r1"/>
<use x="1800" y="2840" href="#r1"/>
<use x="1880" y="2880" href="#r1"/>
<use x="2880" y="2880" href="#r1"/>
<use x="3680" y="2720" href="#r1"/>
<use x="3520" y="2720" href="#r1"/>
<use x="2680" y="2680" href="#r1"/>
<use x="3080" y="2600" href="#r1"/>
<use x="2360" y="2680" href="#r1"/>
<use x="3160" y="2640" href="#r1"/>
<use x="3280" y="2600" href="#r1"/>
<use x="3280" y="2560" href="#r1"/>
<use x="3280" y="2680" href="#r1"/>
<use x="3040" y="2600" href="#r1"/>
<use x="3160" y="2600" href="#r1"/>
<use x="3360" y="2560" href="#r1"/>
<use x="3520" y="2800" href="#r1"/>
<use x="3240" y="2880" href="#r1"/>
<use x="3200" y="2480" href="#r1"/>
<use x="2360" y="2640" href="#r1"/>
<use x="3120" y="2560" href="#r1"/>
<use x="3200" y="2600" href="#r1"/>
<use x="3160" y="2560" href="#r1"/>
<use x="3200" y="2560" href="#r1"/>
<use x="3240" y="2560" href="#r1"/>
<use x="3240" y="2600" href="#r1"/>
<use x="3480" y="2680" href="#r1"/>
<use x="3280" y="2880" href="#r1"/>
<use x="3240" y="2920" href="#r1"/>
<use x="2840" y="2800" href="#r1"/>
<use x="2880" y="2840" href="#r1"/>
<use x="3360" y="2680" href="#r1"/>
<use x="2360" y="3080" href="#r1"/>
<use x="2800" y="2960" href="#r1"/>
<use x="2760" y="2880" href="#r1"/>
<use x="3040" y="2760" href="#r1"/>
<use x="2280" y="3000" href="#r1"/>
<use x="2840" y="2960" href="#r1"/>
<use x="3480" y="2880" href="#r1"/>
<use x="2760" y="2840" href="#r1"/>
<use x="3120" y="2880" href="#r1"/>
<use x="2320" y="3080" href="#r1"/>
<use x="2200" y="2960" href="#r1"/>
<use x="2400" y="3000" href="#r1"/>
<use x="2520" y="3000" href="#r1"/>
<use x="1320" y="2880" href="#r1"/>
<use x="2160" y="3040" href="#r1"/>
<use x="1320" y="3000" href="#r1"/>
<use x="1240" y="3040" href="#r1"/>
<use x="2240" y="3000" href="#r1"/>
<use x="2520" y="2920" href="#r1"/>
<use x="1040" y="2840" href="#r1"/>
<use x="2160" y="2960" href="#r1"/>
<use x="1640" y="3000" href="#r1"/>
<use x="2720" y="2840" href="#r1"/>
<use x="2880" y="2600" href="#r1"/>
<use x="3560" y="2800" href="#r1"/>
<use x="2320" y="2960" href="#r1"/>
<use x="1080" y="2800" href="#r1"/>
<use x="2280" y="2720" href="#r1"/>
<use x="1640" y="2920" href="#r1"/>
<use x="3160" y="2920" href="#r1"/>
<use x="3640" y="2800" href="#r1"/>
<use x="2560" y="3000" href="#r1"/>
<use x="3720" y="2880" href="#r1"/>
<use x="3960" y="2680" href="#r1"/>
<use x="3720" y="2800" href="#r1"/>
<use x="3040" y="2960" href="#r1"/>
<use x="3040" y="2920" href="#r1"/>
<use x="3360" y="2840" href="#r1"/>
<use x="2760" y="2760" href="#r1"/>
<use x="1120" y="2800" href="#r1"/>
<use x="3840" y="2880" href="#r1"/>
<use x="3160" y="2960" href="#r1"/>
<use x="2560" y="2960" href="#r1"/>
<use x="2880" y="2520" href="#r1"/>
<use x="1200" y="3200" href="#r1"/>
<use x="3200" y="2960" href="#r1"/>
<use x="3480" y="2920" href="#r1"/>
<use x="2720" y="3000" href="#r1"/>
<use x="3320" y="3040" href="#r1"/>
<use x="3960" y="2880" href="#r1"/>
<use x="2720" y="2760" href="#r1"/>
<use x="2880" y="2560" href="#r1"/>
<use x="2640" y="2560" href="#r1"/>
<use x="2960" y="2520" href="#r1"/>
<use x="2600" y="2560" href="#r1"/>
<use x="2600" y="2720" href="#r1"/>
<use x="4000" y="2800" href="#r1"/>
<use x="3360" y="3040" href="#r1"/>
<use x="1600" y="2840" href="#r1"/>
<use x="1360" y="2920" href="#r1"/>
<use x="3920" y="2880" href="#r1"/>
<use x="1920" y="2960" href="#r1"/>
<use x="1360" y="3200" href="#r1"/>
<use x="2600" y="3080" href="#r1"/>
<use x="3320" y="2960" href="#r1"/>
<use x="2520" y="2880" href="#r1"/>
<use x="2520" y="3120" href="#r1"/>
<use x="1400" y="3280" href="#r1"/>
<use x="2760" y="3120" href="#r1"/>
<use x="2960" y="2960" href="#r1"/>
<use x="2360" y="2920" href="#r1"/>
<use x="2480" y="2920" href="#r1"/>
<use x="3440" y="2880" href="#r1"/>
<use x="3280" y="3040" href="#r1"/>
<use x="2920" y="2960" href="#r1"/>
<use x="3240" y="3040" href="#r1"/>
<use x="1400" y="3200" href="#r1"/>
<use x="3320" y="2920" href="#r1"/>
<use x="2440" y="3040" href="#r1"/>
<use x="1280" y="3000" href="#r1"/>
<use x="1960" y="3040" href="#r1"/>
<use x="3160" y="3200" href="#r1"/>
<use x="3000" y="3080" href="#r1"/>
<use x="1240" y="3200" href="#r1"/>
<use x="1600" y="3240" href="#r1"/>
<use x="3280" y="3080" href="#r1"/>
<use x="2000" y="2880" href="#r1"/>
<use x="1280" y="2760" href="#r1"/>
<use x="1440" y="2880" href="#r1"/>
<use x="1560" y="2800" href="#r1"/>
<use x="1200" y="2840" href="#r1"/>
<use x="1360" y="2880" href="#r1"/>
<use x="1840" y="2720" href="#r1"/>
<use x="1160" y="2960" href="#r1"/>
<use x="1480" y="2800" href="#r1"/>
<use x="2120" y="2720" href="#r1"/>
<use x="1320" y="2800" href="#r1"/>
<use x="2920" y="2720" href="#r1"/>
<use x="3120" y="2720" href="#r1"/>
<use x="2800" y="2760" href="#r1"/>
<use x="3000" y="2640" href="#r1"/>
<use x="3040" y="2640" href="#r1"/>
<use x="2840" y="2720" href="#r1"/>
<use x="3200" y="2680" href="#r1"/>
<use x="1960" y="2840" href="#r1"/>
<use x="3000" y="2600" href="#r1"/>
<use x="2920" y="2640" href="#r1"/>
<use x="2680" y="2720" href="#r1"/>
<use x="1360" y="2800" href="#r1"/>
<use x="1240" y="2720" href="#r1"/>
<use x="1720" y="2720" href="#r1"/>
<use x="2000" y="2840" href="#r1"/>
<use x="2040" y="2720" href="#r1"/>
<use x="3120" y="2760" href="#r1"/>
<use x="3080" y="2720" href="#r1"/>
<use x="3160" y="2680" href="#r1"/>
<use x="3320" y="2800" href="#r1"/>
<use x="3400" y="2680" href="#r1"/>
<use x="2600" y="2960" href="#r1"/>
<use x="2240" y="2760" href="#r1"/>
<use x="1600" y="2920" href="#r1"/>
<use x="2360" y="3040" href="#r1"/>
<use x="1920" y="2920" href="#r1"/>
<use x="3240" y="3000" href="#r1"/>
<use x="2960" y="2800" href="#r1"/>
<use x="3080" y="2760" href="#r1"/>
<use x="1200" y="3160" href="#r1"/>
<use x="3040" y="2560" href="#r1"/>
<use x="3520" y="2680" href="#r1"/>
<use x="3560" y="2680" href="#r1"/>
<use x="3320" y="2640" href="#r1"/>
<use x="2480" y="2680" href="#r1"/>
<use x="2960" y="2720" href="#r1"/>
<use x="2200" y="2680" href="#r1"/>
<use x="1160" y="2720" href="#r1"/>
<use x="3360" y="2600" href="#r1"/>
<use x="2880" y="2640" href="#r1"/>
<use x="3440" y="2640" href="#r1"/>
<use x="2400" y="2760" href="#r1"/>
<use x="2160" y="2680" href="#r1"/>
<use x="2400" y="2600" href="#r1"/>
<use x="2320" y="2680" href="#r1"/>
<use x="920" y="2720" href="#r1"/>
<use x="3680" y="2680" href="#r1"/>
<use x="1080" y="2720" href="#r1"/>
<use x="3760" y="2680" href="#r1"/>
<use x="3400" y="2640" href="#r1"/>
<use x="2320" y="2800" href="#r1"/>
<use x="2760" y="2640" href="#r1"/>
<use x="2000" y="2680" href="#r1"/>
<use x="2800" y="2640" href="#r1"/>
<use x="3480" y="2640" href="#r1"/>
<use x="3840" y="2680" href="#r1"/>
<use x="3560" y="2640" href="#r1"/>
<use x="3600" y="2640" href="#r1"/>
<use x="960" y="2720" href="#r1"/>
<use x="1040" y="2720" href="#r1"/>
<use x="3880" y="2680" href="#r1"/>
<use x="3920" y="2680" href="#r1"/>
<use x="3040" y="2520" href="#r1"/>
<use x="880" y="2720" href="#r1"/>
<use x="2480" y="2640" href="#r1"/>
<use x="2200" y="3000" href="#r1"/>
<use x="2480" y="2760" href="#r1"/>
<use x="3000" y="2840" href="#r1"/>
<use x="2640" y="2960" href="#r1"/>
<use x="2080" y="2960" href="#r1"/>
<use x="3200" y="2920" href="#r1"/>
<use x="3280" y="2920" href="#r1"/>
<use x="2120" y="2960" href="#r1"/>
<use x="1520" y="2920" href="#r1"/>
<use x="2560" y="3040" href="#r1"/>
<use x="3400" y="2920" href="#r1"/>
<use x="2160" y="3000" href="#r1"/>
<use x="3440" y="2920" href="#r1"/>
<use x="1840" y="2880" href="#r1"/>
<use x="1920" y="2880" href="#r1"/>
<use x="2800" y="3000" href="#r1"/>
<use x="3400" y="2840" href="#r1"/>
<use x="3000" y="2920" href="#r1"/>
<use x="2640" y="2800" href="#r1"/>
<use x="2120" y="3000" href="#r1"/>
<use x="3600" y="2920" href="#r1"/>
<use x="1240" y="2880" href="#r1"/>
<use x="1880" y="2960" href="#r1"/>
<use x="2640" y="3080" href="#r1"/>
<use x="1640" y="2880" href="#r1"/>
<use x="3640" y="2920" href="#r1"/>
<use x="1720" y="2880" href="#r1"/>
<use x="1520" y="2880" href="#r1"/>
<use x="3680" y="2920" href="#r1"/>
<use x="2640" y="3000" href="#r1"/>
<use x="4000" y="2880" href="#r1"/>
<use x="1280" y="2880" href="#r1"/>
<use x="3000" y="2880" href="#r1"/>
<use x="2080" y="3040" href="#r1"/>
<use x="2160" y="2720" href="#r1"/>
<use x="1040" y="2680" href="#r1"/>
<use x="1480" y="2960" href="#r1"/>
<use x="1560" y="2920" href="#r1"/>
<use x="880" y="2920" href="#r1"/>
<use x="1280" y="2800" href="#r1"/>
<use x="1840" y="2800" href="#r1"/>
<use x="960" y="3080" href="#r1"/>
<use x="1520" y="2800" href="#r1"/>
<use x="2000" y="2720" href="#r1"/>
<use x="1160" y="2840" href="#r1"/>
<use x="1240" y="2840" href="#r1"/>
<use x="1200" y="2920" href="#r1"/>
<use x="1720" y="2800" href="#r1"/>
<use x="1960" y="2720" href="#r1"/>
<use x="2040" y="2880" href="#r1"/>
<use x="2880" y="2960" href="#r1"/>
<use x="2080" y="2880" href="#r1"/>
<use x="2520" y="2960" href="#r1"/>
<use x="2320" y="3000" href="#r1"/>
<use x="2120" y="2920" href="#r1"/>
<use x="2160" y="2920" href="#r1"/>
<use x="2000" y="2960" href="#r1"/>
<use x="2200" y="3120" href="#r1"/>
<use x="2360" y="3000" href="#r1"/>
<use x="2240" y="2960" href="#r1"/>
<use x="2400" y="2920" href="#r1"/>
<use x="2280" y="2880" href="#r1"/>
<use x="2960" y="2920" href="#r1"/>
<use x="2440" y="2880" href="#r1"/>
<use x="2680" y="2920" href="#r1"/>
<use x="2680" y="2880" href="#r1"/>
<use x="2800" y="2720" href="#r1"/>
<use x="2800" y="2840" href="#r1"/>
<use x="2680" y="2960" href="#r1"/>
<use x="2720" y="2920" href="#r1"/>
<use x="1800" y="2920" href="#r1"/>
<use x="1480" y="2880" href="#r1"/>
<use x="1400" y="2800" href="#r1"/>
<use x="1560" y="2840" href="#r1"/>
<use x="1440" y="2760" href="#r1"/>
<use x="1520" y="2840" href="#r1"/>
<use x="1840" y="2760" href="#r1"/>
<use x="1440" y="2920" href="#r1"/>
<use x="1440" y="2600" href="#r1"/>
<use x="1360" y="2600" href="#r1"/>
<use x="1440" y="2640" href="#r1"/>
<use x="1480" y="2640" href="#r1"/>
<use x="3280" y="2800" href="#r1"/>
<use x="3360" y="2960" href="#r1"/>
<use x="3440" y="2680" href="#r1"/>
<use x="3560" y="2720" href="#r1"/>
<use x="3600" y="2720" href="#r1"/>
<use x="3640" y="2720" href="#r1"/>
<use x="1760" y="2600" href="#r1"/>
<use x="2320" y="3040" href="#r1"/>
<use x="2320" y="2720" href="#r1"/>
<use x="1480" y="2920" href="#r1"/>
<use x="2280" y="2800" href="#r1"/>
<use x="2600" y="2920" href="#r1"/>
<use x="2480" y="2720" href="#r1"/>
<use x="3240" y="2440" href="#r1"/>
<use x="3320" y="2600" href="#r1"/>
<use x="3320" y="2560" href="#r1"/>
<use x="2360" y="2560" href="#r1"/>
<use x="2960" y="2760" href="#r1"/>
<use x="2680" y="2840" href="#r1"/>
<use x="3440" y="2800" href="#r1"/>
<use x="2960" y="2880" href="#r1"/>
<use x="1320" y="2960" href="#r1"/>
<use x="1200" y="3080" href="#r1"/>
<use x="2360" y="2600" href="#r1"/>
<use x="2520" y="2800" href="#r1"/>
<use x="2280" y="3040" href="#r1"/>
<use x="2600" y="3000" href="#r1"/>
<use x="2520" y="3040" href="#r1"/>
<use x="2040" y="2680" href="#r1"/>
<use x="2040" y="2640" href="#r1"/>
<use x="1520" y="2640" href="#r1"/>
<use x="2160" y="2800" href="#r1"/>
<use x="960" y="2760" href="#r1"/>
<use x="1160" y="2680" href="#r1"/>
<use x="2800" y="2800" href="#r1"/>
<use x="2760" y="2720" href="#r1"/>
<use x="2560" y="2920" href="#r1"/>
<use x="1600" y="2880" href="#r1"/>
<use x="1360" y="2640" href="#r1"/>
<use x="2880" y="2760" href="#r1"/>
<use x="1200" y="2680" href="#r1"/>
<use x="3680" y="2760" href="#r1"/>
<use x="3840" y="2720" href="#r1"/>
<use x="3560" y="2760" href="#r1"/>
<use x="4000" y="2680" href="#r1"/>
<use x="3880" y="2720" href="#r1"/>
<use x="3800" y="2680" href="#r1"/>
<use x="3920" y="2720" href="#r1"/>
<use x="3640" y="2760" href="#r1"/>
<use x="3760" y="2800" href="#r1"/>
<use x="3600" y="2760" href="#r1"/>
<use x="3640" y="2680" href="#r1"/>
<use x="3480" y="2600" href="#r1"/>
<use x="3520" y="2600" href="#r1"/>
<use x="3560" y="2600" href="#r1"/>
<use x="3600" y="2600" href="#r1"/>
<use x="3960" y="2720" href="#r1"/>
<use x="3400" y="2760" href="#r1"/>
<use x="3240" y="2960" href="#r1"/>
<use x="3680" y="2640" href="#r1"/>
<use x="3280" y="3000" href="#r1"/>
<use x="1600" y="1040" href="#r1"/>
<use x="2480" y="960" href="#r1"/>
<use x="0" y="2960" href="#io"/>
<use x="0" y="2360" href="#io"/>
<use x="0" y="2720" href="#io"/>
<use x="0" y="3000" href="#io"/>
<use x="0" y="2400" href="#io"/>
<use x="0" y="2280" href="#io"/>
<use x="0" y="3080" href="#io"/>
<use x="0" y="2240" href="#io"/>
<use x="1840" y="4040" href="#io"/>
<use x="1720" y="4040" href="#io"/>
<use x="960" y="4040" href="#io"/>
<use x="2280" y="4040" href="#io"/>
<use x="920" y="4040" href="#io"/>
<use x="840" y="4040" href="#io"/>
<use x="880" y="4040" href="#io"/>
<use x="2320" y="4040" href="#io"/>
<use x="1440" y="4040" href="#io"/>
<use x="0" y="2600" href="#io"/>
<use x="1400" y="4040" href="#io"/>
<use x="1480" y="4040" href="#io"/>
<use x="1760" y="4040" href="#io"/>
<use x="2360" y="4040" href="#io"/>
<use x="1640" y="4040" href="#io"/>
<use x="1600" y="4040" href="#io"/>
<use x="1240" y="4040" href="#io"/>
<use x="1320" y="4040" href="#io"/>
<use x="1960" y="4040" href="#io"/>
<use x="1280" y="4040" href="#io"/>
<use x="2720" y="4040" href="#io"/>
<use x="2480" y="4040" href="#io"/>
<use x="2520" y="4040" href="#io"/>
<use x="2560" y="4040" href="#io"/>
<use x="1920" y="4040" href="#io"/>
<use x="2080" y="4040" href="#io"/>
<use x="2000" y="4040" href="#io"/>
<use x="1800" y="4040" href="#io"/>
<use x="2120" y="4040" href="#io"/>
<use x="2200" y="4040" href="#io"/>
<use x="2040" y="4040" href="#io"/>
<use x="1880" y="4040" href="#io"/>
<use x="0" y="2640" href="#io"/>
<use x="1680" y="4040" href="#io"/>
<use x="2000" y="0" href="#io"/>
<use x="1560" y="4040" href="#io"/>
<use x="1080" y="4040" href="#io"/>
<use x="1000" y="4040" href="#io"/>
<use x="0" y="2880" href="#io"/>
<use x="0" y="2840" href="#io"/>
<use x="2440" y="4040" href="#io"/>
<use x="4040" y="3040" href="#io"/>
<use x="2400" y="4040" href="#io"/>
<use x="2600" y="4040" href="#io"/>
<use x="2680" y="4040" href="#io"/>
<use x="4040" y="3080" href="#io"/>
<use x="2240" y="4040" href="#io"/>
<use x="1520" y="4040" href="#io"/>
<use x="2160" y="4040" href="#io"/>
<use x="0" y="2760" href="#io"/>
<use x="0" y="2680" href="#io"/>
<use x="2800" y="4040" href="#io"/>
<use x="4040" y="2720" href="#io"/>
<use x="2640" y="4040" href="#io"/>
<use x="1200" y="4040" href="#io"/>
<use x="1160" y="4040" href="#io"/>
<use x="4040" y="2760" href="#io"/>
<use x="1360" y="4040" href="#io"/>
<use x="0" y="2320" href="#io"/>
<use x="1040" y="4040" href="#io"/>
<use x="4040" y="2880" href="#io"/>
<use x="1120" y="4040" href="#io"/>
<use x="4040" y="2640" href="#io"/>
<use x="4040" y="2840" href="#io"/>
<use x="0" y="2560" href="#io"/>
<use x="0" y="2520" href="#io"/>
<use x="4040" y="2800" href="#io"/>
<use x="0" y="2480" href="#io"/>
<use x="0" y="2800" href="#io"/>
<use x="0" y="3040" href="#io"/>
<use x="0" y="2440" href="#io"/>
<use x="0" y="2920" href="#io"/>
<use x="4040" y="2920" href="#io"/>
<line x1="20" y1="2980" x2="1420" y2="2420"/>
<line x1="20" y1="2380" x2="1420" y2="2420"/>
<line x1="20" y1="2740" x2="1420" y2="2420"/>
<line x1="20" y1="3020" x2="1420" y2="2420"/>
<line x1="20" y1="2420" x2="1420" y2="2420"/>
<line x1="20" y1="2300" x2="1420" y2="2420"/>
<line x1="20" y1="3100" x2="1420" y2="2420"/>
<line x1="20" y1="2260" x2="1420" y2="2420"/>
<line x1="1860" y1="4060" x2="1660" y2="2420"/>
<line x1="1740" y1="4060" x2="1660" y2="2420"/>
<line x1="980" y1="4060" x2="1660" y2="2420"/>
<line x1="2300" y1="4060" x2="1660" y2="2420"/>
<line x1="940" y1="4060" x2="1660" y2="2420"/>
<line x1="860" y1="4060" x2="1660" y2="2420"/>
<line x1="900" y1="4060" x2="1660" y2="2420"/>
<line x1="2340" y1="4060" x2="1660" y2="2420"/>
<line x1="1460" y1="4060" x2="1460" y2="2620"/>
<line x1="20" y1="2620" x2="1380" y2="2620"/>
<line x1="1420" y1="4060" x2="1460" y2="2660"/>
<line x1="1500" y1="4060" x2="1500" y2="2660"/>
<line x1="1780" y1="4060" x2="1780" y2="2620"/>
<line x1="2380" y1="4060" x2="2380" y2="2580"/>
<line x1="1660" y1="4060" x2="1660" y2="2780"/>
<line x1="1620" y1="4060" x2="1620" y2="3260"/>
<line x1="1260" y1="4060" x2="1260" y2="3220"/>
<line x1="1340" y1="4060" x2="1260" y2="3100"/>
<line x1="1980" y1="4060" x2="1980" y2="3060"/>
<line x1="1300" y1="4060" x2="1300" y2="3020"/>
<line x1="2740" y1="4060" x2="2500" y2="2940"/>
<line x1="2500" y1="4060" x2="2500" y2="2940"/>
<line x1="2540" y1="4060" x2="2540" y2="3140"/>
<line x1="2580" y1="4060" x2="2540" y2="3140"/>
<line x1="1940" y1="4060" x2="1940" y2="2980"/>
<line x1="2100" y1="4060" x2="1940" y2="2980"/>
<line x1="2020" y1="4060" x2="1820" y2="2900"/>
<line x1="1820" y1="4060" x2="1820" y2="2900"/>
<line x1="2140" y1="4060" x2="1940" y2="2780"/>
<line x1="2220" y1="4060" x2="2140" y2="2700"/>
<line x1="2060" y1="4060" x2="1900" y2="2940"/>
<line x1="1900" y1="4060" x2="1860" y2="2940"/>
<line x1="20" y1="2660" x2="1300" y2="2660"/>
<line x1="1700" y1="4060" x2="1940" y2="2780"/>
<line x1="2020" y1="20" x2="1620" y2="1060"/>
<line x1="1580" y1="4060" x2="2060" y2="2660"/>
<line x1="1100" y1="4060" x2="1540" y2="2660"/>
<line x1="1020" y1="4060" x2="2180" y2="2820"/>
<line x1="20" y1="2900" x2="980" y2="2780"/>
<line x1="20" y1="2860" x2="1180" y2="2700"/>
<line x1="2460" y1="4060" x2="2820" y2="2820"/>
<line x1="4060" y1="3060" x2="2780" y2="2740"/>
<line x1="2420" y1="4060" x2="2580" y2="2940"/>
<line x1="2620" y1="4060" x2="1620" y2="2900"/>
<line x1="2700" y1="4060" x2="1380" y2="2660"/>
<line x1="4060" y1="3100" x2="2900" y2="2780"/>
<line x1="2260" y1="4060" x2="1460" y2="2860"/>
<line x1="1540" y1="4060" x2="1540" y2="2660"/>
<line x1="2180" y1="4060" x2="2180" y2="2820"/>
<line x1="20" y1="2780" x2="980" y2="2780"/>
<line x1="20" y1="2700" x2="1180" y2="2700"/>
<line x1="2820" y1="4060" x2="2820" y2="2820"/>
<line x1="4060" y1="2740" x2="2780" y2="2740"/>
<line x1="2660" y1="4060" x2="2580" y2="2940"/>
<line x1="1220" y1="4060" x2="1620" y2="2900"/>
<line x1="1180" y1="4060" x2="1380" y2="2660"/>
<line x1="4060" y1="2780" x2="2900" y2="2780"/>
<line x1="1380" y1="4060" x2="1420" y2="2740"/>
<line x1="20" y1="2340" x2="1140" y2="2700"/>
<line x1="1060" y1="4060" x2="1100" y2="2980"/>
<line x1="4060" y1="2900" x2="3100" y2="2860"/>
<line x1="1140" y1="4060" x2="1340" y2="3220"/>
<line x1="4060" y1="2660" x2="3980" y2="2740"/>
<line x1="4060" y1="2860" x2="3260" y2="2860"/>
<line x1="20" y1="2580" x2="1100" y2="2580"/>
<line x1="20" y1="2540" x2="1180" y2="2580"/>
<line x1="4060" y1="2820" x2="3180" y2="2740"/>
<line x1="20" y1="2500" x2="1100" y2="2580"/>
<line x1="20" y1="2820" x2="1180" y2="2620"/>
<line x1="20" y1="3060" x2="1140" y2="2860"/>
<line x1="20" y1="2460" x2="900" y2="2540"/>
<line x1="20" y1="2940" x2="940" y2="2820"/>
<line x1="4060" y1="2940" x2="3260" y2="2900"/>
</svg>
